<mxfile host="app.diagrams.net" agent="Mozilla/5.0 (Windows NT 10.0; Win64; x64) AppleWebKit/537.36 (KHTML, like Gecko) Chrome/132.0.0.0 Safari/537.36" version="26.0.11">
  <diagram id="WI9T0HZ2pTsCkuznbFz-" name="Page-1">
    <mxGraphModel dx="1862" dy="1764" grid="1" gridSize="10" guides="1" tooltips="1" connect="1" arrows="1" fold="1" page="1" pageScale="1" pageWidth="827" pageHeight="1169" math="0" shadow="0">
      <root>
        <mxCell id="0" />
        <mxCell id="1" parent="0" />
        <mxCell id="a1hQxXgVuY8dCBBikamt-29" style="edgeStyle=orthogonalEdgeStyle;rounded=0;orthogonalLoop=1;jettySize=auto;html=1;entryX=-0.018;entryY=0.321;entryDx=0;entryDy=0;entryPerimeter=0;exitX=1.018;exitY=0.155;exitDx=0;exitDy=0;exitPerimeter=0;" edge="1" parent="1" source="a1hQxXgVuY8dCBBikamt-3" target="28heIlWIprtDJxRmpmQK-2">
          <mxGeometry relative="1" as="geometry" />
        </mxCell>
        <mxCell id="28heIlWIprtDJxRmpmQK-7" value="1" style="ellipse;whiteSpace=wrap;html=1;aspect=fixed;fillColor=#4D9900;strokeColor=none;labelBackgroundColor=none;" parent="1" vertex="1">
          <mxGeometry x="-110" y="103" width="23" height="23" as="geometry" />
        </mxCell>
        <mxCell id="28heIlWIprtDJxRmpmQK-15" value="5" style="ellipse;whiteSpace=wrap;html=1;aspect=fixed;fillColor=#4D9900;strokeColor=none;labelBackgroundColor=none;" parent="1" vertex="1">
          <mxGeometry x="568.5" y="300" width="23" height="23" as="geometry" />
        </mxCell>
        <mxCell id="28heIlWIprtDJxRmpmQK-16" value="2" style="ellipse;whiteSpace=wrap;html=1;aspect=fixed;fillColor=#4D9900;strokeColor=none;labelBackgroundColor=none;" parent="1" vertex="1">
          <mxGeometry x="210" y="80" width="23" height="23" as="geometry" />
        </mxCell>
        <mxCell id="28heIlWIprtDJxRmpmQK-17" value="3" style="ellipse;whiteSpace=wrap;html=1;aspect=fixed;fillColor=#4D9900;strokeColor=none;labelBackgroundColor=none;" parent="1" vertex="1">
          <mxGeometry x="568.5" y="47" width="23" height="23" as="geometry" />
        </mxCell>
        <mxCell id="28heIlWIprtDJxRmpmQK-18" value="4" style="ellipse;whiteSpace=wrap;html=1;aspect=fixed;fillColor=#4D9900;strokeColor=none;labelBackgroundColor=none;" parent="1" vertex="1">
          <mxGeometry x="770" y="147" width="23" height="23" as="geometry" />
        </mxCell>
        <mxCell id="28heIlWIprtDJxRmpmQK-19" value="7" style="ellipse;whiteSpace=wrap;html=1;aspect=fixed;fillColor=#4D9900;strokeColor=none;labelBackgroundColor=none;" parent="1" vertex="1">
          <mxGeometry x="-110" y="307" width="23" height="23" as="geometry" />
        </mxCell>
        <mxCell id="28heIlWIprtDJxRmpmQK-20" value="6" style="ellipse;whiteSpace=wrap;html=1;aspect=fixed;fillColor=#4D9900;strokeColor=none;labelBackgroundColor=none;" parent="1" vertex="1">
          <mxGeometry x="210" y="318.5" width="23" height="23" as="geometry" />
        </mxCell>
        <mxCell id="a1hQxXgVuY8dCBBikamt-7" value="" style="group" vertex="1" connectable="0" parent="1">
          <mxGeometry x="-330" y="90" width="150" height="350" as="geometry" />
        </mxCell>
        <mxCell id="a1hQxXgVuY8dCBBikamt-3" value="" style="rounded=0;whiteSpace=wrap;html=1;fillColor=#f5f5f5;strokeColor=none;fontColor=#333333;labelBackgroundColor=none;" vertex="1" parent="a1hQxXgVuY8dCBBikamt-7">
          <mxGeometry width="150" height="350" as="geometry" />
        </mxCell>
        <mxCell id="a1hQxXgVuY8dCBBikamt-4" value="End Users" style="text;html=1;resizable=0;points=[];autosize=1;align=center;verticalAlign=top;spacingTop=-4;labelBackgroundColor=none;" vertex="1" parent="a1hQxXgVuY8dCBBikamt-7">
          <mxGeometry x="35" y="268.33333333333337" width="80" height="20" as="geometry" />
        </mxCell>
        <mxCell id="a1hQxXgVuY8dCBBikamt-5" value="" style="image;aspect=fixed;html=1;points=[];align=center;fontSize=12;image=img/lib/azure2/identity/Users.svg;" vertex="1" parent="a1hQxXgVuY8dCBBikamt-7">
          <mxGeometry x="43" y="175" width="60.54054054054054" height="66.21621621621621" as="geometry" />
        </mxCell>
        <mxCell id="a1hQxXgVuY8dCBBikamt-6" value="Q&amp;amp;A Maker" style="html=1;verticalLabelPosition=bottom;align=center;labelBackgroundColor=none;verticalAlign=top;strokeWidth=2;strokeColor=#0080F0;fillColor=#ffffff;shadow=0;dashed=0;shape=mxgraph.ios7.icons.chat;aspect=fixed;" vertex="1" parent="a1hQxXgVuY8dCBBikamt-7">
          <mxGeometry x="37.5" y="70" width="70.94594594594595" height="42.567567567567565" as="geometry" />
        </mxCell>
        <mxCell id="a1hQxXgVuY8dCBBikamt-27" value="" style="group" vertex="1" connectable="0" parent="1">
          <mxGeometry x="10" y="40" width="113" height="430" as="geometry" />
        </mxCell>
        <mxCell id="a1hQxXgVuY8dCBBikamt-19" value="" style="group" vertex="1" connectable="0" parent="a1hQxXgVuY8dCBBikamt-27">
          <mxGeometry x="3" y="200" width="110" height="230" as="geometry" />
        </mxCell>
        <mxCell id="a1hQxXgVuY8dCBBikamt-65" style="edgeStyle=orthogonalEdgeStyle;rounded=0;orthogonalLoop=1;jettySize=auto;html=1;exitX=0;exitY=0.75;exitDx=0;exitDy=0;" edge="1" parent="a1hQxXgVuY8dCBBikamt-19" source="28heIlWIprtDJxRmpmQK-2">
          <mxGeometry relative="1" as="geometry">
            <mxPoint x="-193" y="110.11764705882342" as="targetPoint" />
          </mxGeometry>
        </mxCell>
        <mxCell id="28heIlWIprtDJxRmpmQK-2" value="" style="rounded=0;whiteSpace=wrap;html=1;fillColor=#f5f5f5;strokeColor=none;fontColor=#333333;labelBackgroundColor=none;" parent="a1hQxXgVuY8dCBBikamt-19" vertex="1">
          <mxGeometry x="-24.54" y="-250" width="134.54" height="480" as="geometry" />
        </mxCell>
        <mxCell id="a1hQxXgVuY8dCBBikamt-8" value="" style="shape=image;html=1;verticalAlign=top;verticalLabelPosition=bottom;labelBackgroundColor=#ffffff;imageAspect=0;aspect=fixed;image=https://cdn1.iconfinder.com/data/icons/unicons-line-vol-6/24/telegram-128.png" vertex="1" parent="a1hQxXgVuY8dCBBikamt-19">
          <mxGeometry x="6.49" y="10" width="60" height="60" as="geometry" />
        </mxCell>
        <mxCell id="a1hQxXgVuY8dCBBikamt-17" value="Telegram" style="text;html=1;resizable=0;points=[];autosize=1;align=center;verticalAlign=top;spacingTop=-4;labelBackgroundColor=none;" vertex="1" parent="a1hQxXgVuY8dCBBikamt-19">
          <mxGeometry x="1.4871794871794872" y="74" width="70" height="20" as="geometry" />
        </mxCell>
        <mxCell id="a1hQxXgVuY8dCBBikamt-16" value="" style="group" vertex="1" connectable="0" parent="a1hQxXgVuY8dCBBikamt-27">
          <mxGeometry x="6" y="110" width="70" height="80" as="geometry" />
        </mxCell>
        <mxCell id="a1hQxXgVuY8dCBBikamt-13" value="" style="shape=image;verticalLabelPosition=bottom;labelBackgroundColor=#ffffff;verticalAlign=top;aspect=fixed;imageAspect=0;image=data:image/svg+xml,PHN2ZyB4bWxuczpjYz0iaHR0cDovL2NyZWF0aXZlY29tbW9ucy5vcmcvbnMjIiB4bWxuczpkYz0iaHR0cDovL3B1cmwub3JnL2RjL2VsZW1lbnRzLzEuMS8iIHhtbG5zOmlua3NjYXBlPSJodHRwOi8vd3d3Lmlua3NjYXBlLm9yZy9uYW1lc3BhY2VzL2lua3NjYXBlIiB4bWxuczpyZGY9Imh0dHA6Ly93d3cudzMub3JnLzE5OTkvMDIvMjItcmRmLXN5bnRheC1ucyMiIHhtbG5zOnNvZGlwb2RpPSJodHRwOi8vc29kaXBvZGkuc291cmNlZm9yZ2UubmV0L0RURC9zb2RpcG9kaS0wLmR0ZCIgeG1sbnM6c3ZnPSJodHRwOi8vd3d3LnczLm9yZy8yMDAwL3N2ZyIgeG1sbnM9Imh0dHA6Ly93d3cudzMub3JnLzIwMDAvc3ZnIiB4bWxuczp4bGluaz0iaHR0cDovL3d3dy53My5vcmcvMTk5OS94bGluayIgdmVyc2lvbj0iMS4xIiBpZD0ic3ZnMTIyNjUiIGlua3NjYXBlOnZlcnNpb249IjAuOTIuMyAoMjQwNTU0NiwgMjAxOC0wMy0xMSkiIHNvZGlwb2RpOmRvY25hbWU9IndlYnNpdGVzXzIuc3ZnIiB4PSIwcHgiIHk9IjBweCIgdmlld0JveD0iMCAwIDUxLjIyIDM3LjUxIiBzdHlsZT0iZW5hYmxlLWJhY2tncm91bmQ6bmV3IDAgMCA1MS4yMiAzNy41MTsiIHhtbDpzcGFjZT0icHJlc2VydmUiPiYjeGE7PHNvZGlwb2RpOm5hbWVkdmlldyBib3JkZXJjb2xvcj0iIzY2NjY2NiIgYm9yZGVyb3BhY2l0eT0iMSIgZml0LW1hcmdpbi1ib3R0b209IjAiIGZpdC1tYXJnaW4tbGVmdD0iMCIgZml0LW1hcmdpbi1yaWdodD0iMCIgZml0LW1hcmdpbi10b3A9IjAiIGdyaWR0b2xlcmFuY2U9IjEwIiBndWlkZXRvbGVyYW5jZT0iMTAiIGlkPSJuYW1lZHZpZXcxMjI2NyIgaW5rc2NhcGU6Y3VycmVudC1sYXllcj0ic3ZnMTIyNjUiIGlua3NjYXBlOmN4PSIzMS45NzI1MjgiIGlua3NjYXBlOmN5PSIxNS4yODA0MDUiIGlua3NjYXBlOnBhZ2VvcGFjaXR5PSIwIiBpbmtzY2FwZTpwYWdlc2hhZG93PSIyIiBpbmtzY2FwZTp3aW5kb3ctaGVpZ2h0PSIxMDE3IiBpbmtzY2FwZTp3aW5kb3ctbWF4aW1pemVkPSIxIiBpbmtzY2FwZTp3aW5kb3ctd2lkdGg9IjE5MjAiIGlua3NjYXBlOndpbmRvdy14PSItOCIgaW5rc2NhcGU6d2luZG93LXk9Ii04IiBpbmtzY2FwZTp6b29tPSI4LjY2ODg0MDYiIG9iamVjdHRvbGVyYW5jZT0iMTAiIHBhZ2Vjb2xvcj0iI2ZmZmZmZiIgc2hvd2dyaWQ9ImZhbHNlIj4mI3hhOwk8L3NvZGlwb2RpOm5hbWVkdmlldz4mI3hhOzxnIGlkPSJnMTIyNjMiPiYjeGE7CTx0aXRsZSBpZD0idGl0bGUxMjIxMiI+UGFnZS0xPC90aXRsZT4mI3hhOwk8ZyBpZD0iZ3JvdXA0MzI0LTEiPiYjeGE7CQk8dGl0bGUgaWQ9InRpdGxlMTIyMTQiPldlYnNpdGVzICMyPC90aXRsZT4mI3hhOwkJPGcgaWQ9Imdyb3VwNDMyNS0yIj4mI3hhOwkJCTx0aXRsZSBpZD0idGl0bGUxMjIxNiI+TG9naWMgQXBwcyAjMTwvdGl0bGU+JiN4YTsJCQk8ZyBpZD0ic2hhcGU0MzI2LTMiPiYjeGE7CQkJCTx0aXRsZSBpZD0idGl0bGUxMjIxOCI+U2hlZXQuNDMyNjwvdGl0bGU+JiN4YTsJCQkJPHBhdGggaWQ9InBhdGgxMjIyMCIgaW5rc2NhcGU6Y29ubmVjdG9yLWN1cnZhdHVyZT0iMCIgc3R5bGU9ImZpbGw6IzNGNTc2NTsiIGQ9Ik00OS4yNywwQzEuODksMCwxLjg5LDAsMS44OSwwICAgICAgQzAuMzIsMCwwLDAuMzgsMCwxLjk1YzAsMzMuNjcsMCwzMy42NywwLDMzLjY3YzAsMS41NywwLjMyLDEuODksMS44OSwxLjg5YzQ3LjM4LDAsNDcuMzgsMCw0Ny4zOCwwYzEuNjQsMCwxLjk1LTAuMzIsMS45NS0xLjg5ICAgICAgYzAtMzMuNjcsMC0zMy42NywwLTMzLjY3QzUxLjIyLDAuMzgsNTAuOTEsMCw0OS4yNywweiIvPiYjeGE7CQkJPC9nPiYjeGE7CQkJPGcgaWQ9InNoYXBlNDMyNy01IiB0cmFuc2Zvcm09InRyYW5zbGF0ZSgxLjI2MDAzLC0xLjc2MTk4KSI+JiN4YTsJCQkJPHRpdGxlIGlkPSJ0aXRsZTEyMjIzIj5TaGVldC40MzI3PC90aXRsZT4mI3hhOwkJCQk8cGF0aCBpZD0icGF0aDEyMjI1IiBpbmtzY2FwZTpjb25uZWN0b3ItY3VydmF0dXJlPSIwIiBzdHlsZT0iZmlsbDojMDBCMDUwOyIgZD0iTTAsOC44MXYyOC43aDQ4LjdWOC44MUgweiIvPiYjeGE7CQkJPC9nPiYjeGE7CQkJPGcgaWQ9InNoYXBlNDMyOC03IiB0cmFuc2Zvcm09InRyYW5zbGF0ZSgxLjMyMzAzLC0zMS40NjM5KSI+JiN4YTsJCQkJPHRpdGxlIGlkPSJ0aXRsZTEyMjI4Ij5TaGVldC40MzI4PC90aXRsZT4mI3hhOwkJCQk8cGF0aCBpZD0icGF0aDEyMjMwIiBpbmtzY2FwZTpjb25uZWN0b3ItY3VydmF0dXJlPSIwIiBzdHlsZT0iZmlsbDojMjZBOUUwOyIgZD0iTTUuMSwzNC45OWMwLDEuNDUtMS4xMywyLjUyLTIuNTIsMi41MiAgICAgIEMxLjIsMzcuNTEsMCwzNi40NCwwLDM0Ljk5YzAtMS4zOSwxLjItMi41MiwyLjU4LTIuNTJDMy45NywzMi40Nyw1LjEsMzMuNiw1LjEsMzQuOTl6Ii8+JiN4YTsJCQk8L2c+JiN4YTsJCQk8ZyBpZD0ic2hhcGU0MzI5LTkiIHRyYW5zZm9ybT0idHJhbnNsYXRlKDIuMzk0MDUsLTMyLjg0ODQpIj4mI3hhOwkJCQk8dGl0bGUgaWQ9InRpdGxlMTIyMzMiPlNoZWV0LjQzMjk8L3RpdGxlPiYjeGE7CQkJCTxwYXRoIGlkPSJwYXRoMTIyMzUiIGlua3NjYXBlOmNvbm5lY3Rvci1jdXJ2YXR1cmU9IjAiIHN0eWxlPSJmaWxsOiNGRkZGRkY7IiBkPSJNMS4wMSwzNi4xMmwwLjg4LTAuODJIMS4yTDAsMzYuMzdsMS4yLDEuMTQgICAgICBoMC42OWwtMC44OC0wLjg5aDIuMDF2LTAuNUgxLjAxeiIvPiYjeGE7CQkJPC9nPiYjeGE7CQkJPGcgaWQ9InNoYXBlNDMzMC0xMSIgdHJhbnNmb3JtPSJ0cmFuc2xhdGUoNy4zNzExNiwtMzIuODQ4NCkiPiYjeGE7CQkJCTx0aXRsZSBpZD0idGl0bGUxMjIzOCI+U2hlZXQuNDMzMDwvdGl0bGU+JiN4YTsJCQkJPHBhdGggaWQ9InBhdGgxMjI0MCIgaW5rc2NhcGU6Y29ubmVjdG9yLWN1cnZhdHVyZT0iMCIgc3R5bGU9ImZpbGw6I0ZGRkZGRjsiIGQ9Ik0wLDM1LjExdjIuNGg0Mi42NXYtMi40SDB6Ii8+JiN4YTsJCQk8L2c+JiN4YTsJCQk8ZyBpZD0ic2hhcGU0MzMxLTEzIiB0cmFuc2Zvcm09InRyYW5zbGF0ZSgxMy4xNjczLC0xMC45NDk1KSI+JiN4YTsJCQkJPHRpdGxlIGlkPSJ0aXRsZTEyMjQzIj5TaGVldC40MzMxPC90aXRsZT4mI3hhOwkJCQk8cGF0aCBpZD0icGF0aDEyMjQ1IiBpbmtzY2FwZTpjb25uZWN0b3ItY3VydmF0dXJlPSIwIiBzdHlsZT0iZmlsbDojRkZGRkZGOyIgZD0iTTI0LDMyLjAzYzAtMS4yNi0xLTIuMzMtMi4zMy0yLjMzICAgICAgYy0zLjUzLDAtMy41MywwLTMuNTMsMGMtMy4wOC0zLjAyLTMuMDgtMy4wMi0zLjA4LTMuMDJjLTcuNTYsMC03LjU2LDAtNy41NiwwYy0zLjIyLDMuMDgtMy4yMiwzLjA4LTMuMjIsMy4wOCAgICAgIGMtMS45NSwwLjE5LTMuNTIsMS44My0zLjUyLDMuODRjMCwwLjc2LDAsMC43NiwwLDAuNzZjLTAuNzYsMC0wLjc2LDAtMC43NiwwYzAsMS41MSwwLDEuNTEsMCwxLjUxYzMuMjgsMCwzLjI4LDAsMy4yOCwwICAgICAgYzAuMzEsMC45NCwxLjE5LDEuNjQsMi4yLDEuNjRzMS44My0wLjcsMi4xNC0xLjY0YzkuNTgsMCw5LjU4LDAsOS41OCwwYzAuMzgsMC45NCwxLjIsMS42NCwyLjIsMS42NGMxLjAxLDAsMS44My0wLjcsMi4yMS0xLjY0ICAgICAgYzMuMTUsMCwzLjE1LDAsMy4xNSwwYzAtMS41MSwwLTEuNTEsMC0xLjUxYy0wLjc2LDAtMC43NiwwLTAuNzYsMFYzMi4wM3ogTTIyLjQ5LDMyLjAzYzAsMi4zMywwLDIuMzMsMCwyLjMzICAgICAgYy0wLjg4LDAtMC44OCwwLTAuODgsMGMtMC4zOC0wLjg4LTEuMi0xLjU3LTIuMjEtMS41N2MtMSwwLTEuODIsMC42OS0yLjIsMS41N2MtNi4zNiwwLTYuMzYsMC02LjM2LDBjMC0zLjA4LDAtMy4wOCwwLTMuMDggICAgICBjMTAuODMsMCwxMC44MywwLDEwLjgzLDBDMjIuMTgsMzEuMjgsMjIuNDksMzEuNTksMjIuNDksMzIuMDN6IE0xNS45NCwyOS43Yy01LjEsMC01LjEsMC01LjEsMGMwLTEuNTEsMC0xLjUxLDAtMS41MSAgICAgIGMzLjU5LDAsMy41OSwwLDMuNTksMEwxNS45NCwyOS43eiBNOC4wNiwyOC4xOWMxLjI2LDAsMS4yNiwwLDEuMjYsMGMwLDEuNTEsMCwxLjUxLDAsMS41MWMtMi43NywwLTIuNzcsMC0yLjc3LDBMOC4wNiwyOC4xOXogICAgICAgTTIuMzMsMzMuNmMwLTEuMzIsMS4wMS0yLjMyLDIuNC0yLjMyYzQuNTksMCw0LjU5LDAsNC41OSwwYzAsMy4wOCwwLDMuMDgsMCwzLjA4Yy0xLjcsMC0xLjcsMC0xLjcsMCAgICAgIGMtMC4zMS0wLjg4LTEuMTMtMS41Ny0yLjE0LTEuNTdzLTEuODksMC42OS0yLjIsMS41N2MtMC45NSwwLTAuOTUsMC0wLjk1LDBMMi4zMywzMy42eiBNNS40OCwzNS44NyAgICAgIGMtMC40NCwwLTAuNzUtMC4zMi0wLjc1LTAuNzZjMC0wLjM3LDAuMzEtMC43NSwwLjc1LTAuNzVjMC4zOCwwLDAuNzYsMC4zOCwwLjc2LDAuNzVDNi4yNCwzNS41NSw1Ljg2LDM1Ljg3LDUuNDgsMzUuODd6ICAgICAgIE0xOS40LDM1Ljg3Yy0wLjQ0LDAtMC43NS0wLjMyLTAuNzUtMC43NmMwLTAuMzcsMC4zMS0wLjc1LDAuNzUtMC43NWMwLjQ1LDAsMC43NiwwLjM4LDAuNzYsMC43NSAgICAgIEMyMC4xNiwzNS41NSwxOS44NSwzNS44NywxOS40LDM1Ljg3eiIvPiYjeGE7CQkJPC9nPiYjeGE7CQkJPGcgaWQ9InNoYXBlNDMzMi0xNSIgdHJhbnNmb3JtPSJ0cmFuc2xhdGUoMS4wOTgyNSwtMS43MzMwNSkiPiYjeGE7CQkJCTx0aXRsZSBpZD0idGl0bGUxMjI0OCI+U2hlZXQuNDMzMjwvdGl0bGU+JiN4YTsJCQkJPHBhdGggaWQ9InBhdGgxMjI1MCIgaW5rc2NhcGU6Y29ubmVjdG9yLWN1cnZhdHVyZT0iMCIgc3R5bGU9ImZpbGw6IzAwQjBGMDsiIGQ9Ik0wLDguOHYyOC43MWg0OC43N1Y4LjhIMHoiLz4mI3hhOwkJCTwvZz4mI3hhOwkJPC9nPiYjeGE7CQk8ZyBpZD0iZ3JvdXA0MzMzLTE3IiB0cmFuc2Zvcm09InRyYW5zbGF0ZSgxNS4wNjkyLC01LjQ0NjY2KSI+JiN4YTsJCQk8dGl0bGUgaWQ9InRpdGxlMTIyNTQiPldlYnNpdGVzPC90aXRsZT4mI3hhOwkJCTxnIGlkPSJzaGFwZTQzMzQtMTgiPiYjeGE7CQkJCTx0aXRsZSBpZD0idGl0bGUxMjI1NiI+U2hlZXQuNDMzNDwvdGl0bGU+JiN4YTsJCQkJPHBhdGggaWQ9InBhdGgxMjI1OCIgaW5rc2NhcGU6Y29ubmVjdG9yLWN1cnZhdHVyZT0iMCIgc3R5bGU9ImZpbGw6I0ZGRkZGRjsiIGQ9Ik0xMC40OSwxNi41M2M1LjgsMCwxMC41OSw0LjY2LDEwLjU5LDEwLjQzICAgICAgYzAsNS44OS00Ljc5LDEwLjU1LTEwLjU5LDEwLjU1QzQuNjksMzcuNTEsMCwzMi44NSwwLDI2Ljk2QzAsMjEuMTksNC42OSwxNi41MywxMC40OSwxNi41M3ogTTE0LjM5LDM1LjYyICAgICAgYy0wLjMzLTEuNzgsMC42Ny00Ljc3LDAuMTEtNS4zM2MtMC4yMi0wLjExLTAuNDQtMC4yMi0wLjY3LTAuMTFjLTAuNDQsMC4xMS0wLjg5LDAuMzMtMS4yMiwwLjIyYy0xLjktMC44OC0wLjc4LTMuODgsMS4xMS00LjU1ICAgICAgYzAuMzQtMC4xMSwwLjY3LTAuMTEsMS4wMS0wLjExYzAuNTUtMC4xMSwwLjg5LTAuMTEsMC44OSwwLjIyYzAsMC40NSwwLjg5LDAuNzgsMS4xMSwwLjc4YzAuMTIsMCwwLjEyLTAuMzMsMC4yMy0wLjMzICAgICAgYzAuNzgsMCwxLjMzLDAuNDQsMS40NSwwLjExYzAuMjItMS4xMSwwLjExLTAuNTYtMC43OS0wLjY3Yy0wLjMzLTAuMTEtMC4xMS0wLjY2LTAuNDQtMC42NmMtMC4yMi0wLjExLDAuMTEsMC42Ni0wLjIyLDAuNDQgICAgICBjLTAuNDUtMC4zMy0wLjY3LTEuMTEtMS4xMi0xLjIyYy0wLjU2LTAuMTEsMC4zNCwwLjQ0LDAuNDUsMC43OGMwLjExLDAuMzMtMC4zNCwwLjc3LTAuNTYsMC40NGMtMC4xMS0wLjExLDAuNDUtMC40NC0wLjIzLTAuODkgICAgICBjLTAuMTEtMC4yMi0wLjQ0LTAuMjItMC42NiwwYy0wLjM0LDAuMzQtMC40NSwwLjY3LTAuNTYsMC42N2MtMC4zNCwwLjIyLTAuNTYsMC4yMi0wLjg5LDAuMTFjLTAuNDUtMC4xMS0wLjM0LTEuMTEsMC4xMS0xICAgICAgYzEuMzQsMC4zMywwLjExLTAuNDQsMC40NC0wLjY2YzAuMTItMC4xMiwwLjU2LTAuNDUsMC43OS0wLjc4YzAuMjItMC4yMywwLjExLTAuODksMC41NS0wLjc4YzAuMjIsMCwwLjExLDAuNDQsMC4zNCwwLjU1ICAgICAgYzAuMTEsMC4xMSwwLjQ0LDAsMC42NywwYzAuMzMsMCwwLjMzLTAuMjIsMC4zMy0wLjU1YzAtMC40NCwwLjc4LTAuMzMsMC43OC0wLjU2Yy0wLjExLTAuMzMtMC44OSwwLjEyLTAuODktMC4zMyAgICAgIGMwLTAuNTUsMC42Ny0wLjY2LDAuMjItMC43N2MtMC4zMy0wLjEyLTAuNzgsMC4yMi0wLjY3LDAuOTljMC4xMiwwLjc4LDAuMjMsMS4xMS0wLjMzLDAuODljLTAuNDUtMC4zMywwLjExLTAuODktMC4zNC0wLjY2ICAgICAgYy0wLjMzLDAuMjItMC41NSwwLjMzLTAuNTUtMC4yM2MwLTAuNDQsMC44OS0xLjc3LDEuNTYtMS45OWMtMS4yMy0xLTIuNjgtMS42Ny00LjM1LTEuODlsMCwwYzAsMC44OSwwLDEuNDQtMC4xMSwxLjg5ICAgICAgYzAsMC41NS0xLjY3LDAuNjYtMS45LDEuNjZjLTAuMjIsMC44OS0wLjU2LDAuMzMtMS4xMi0wLjMzYy0wLjU1LTAuNjcsMC4xMi0xLjU1LTAuMjItMi4xMWMtMC4yMi0wLjU2LTEuMjIsMC4yMi0xLjIyLTAuMzQgICAgICBjMC0wLjIyLDAuMjItMC40NCwwLjIyLTAuNTVjLTAuMTEsMC4xMS0wLjIyLDAuMTEtMC4zNCwwLjExYy0wLjMzLDAuMjItMC41NiwwLjg5LTAuNjcsMWMtMC4zMywwLjQ1LDAuNDUsMC4zNCwwLjc5LDAuNzggICAgICBjMC40NCwwLjY2LDAuNzgsMS4xMSwwLjU1LDEuNDRjLTAuMTEsMC4zMy0xLjQ1LDAtMS4yMy0wLjU1YzAuMzQtMC41NiwwLjEyLTAuNjctMC4yMi0wLjc4Yy0wLjMzLDAtMC4zMywwLjQ0LTAuMzMsMSAgICAgIGMwLDAuNDQtMC44OSwwLjU1LTEuMzQsMWMtMC40NSwwLjU1LDAuMzMsMC45OSwxLjAxLDEuMjJjMC42NiwwLjIyLDAuMjItMC44OSwwLjQ0LTEuNDVjMC4yMi0wLjc3LDEtMC4xMSwxLjU2LDAuNTYgICAgICBjMC40NSwwLjY2LDEuMjMsMS41NiwwLjIzLDJjLTEuNjgsMC42Ni0yLjM1LDEuNDQtMi42OCwyLjExYy0wLjM0LDAuNjYsMCwwLjk5LTAuMjMsMS4yMmMtMC4yMiwwLjIyLTAuMjItMC4xMS0wLjQ0LTAuNjcgICAgICBjLTAuMjMtMC4zMy0xLTAuMzMtMS4zNCwwLjMzYy0wLjIyLDAuMTEtMC4yMiwwLjQ1LTAuMjIsMC43OGMwLDEuMTEsMC43OC0wLjMzLDEuMjItMC4xMWMwLjU2LDAuMTEtMC40NCwwLjIyLTAuMzMsMC42NyAgICAgIGMwLjExLDAuNDQsMC43OC0wLjIyLDAuNTYsMC43N2MtMC4xMiwwLjU2LDAuNzgsMC4xMiwxLjM0LTAuMTFjMS4yMi0wLjQ0LDIuMTIsMS41NiwzLjAxLDEuODljMSwwLjMzLDEuMzQsMC41NSwxLjExLDEgICAgICBjLTAuNjcsMS4zMy0yLDIuMjItMi42NywzLjc3YzAuODksMC4zMywyLDAuNDUsMy4wMSwwLjQ1QzExLjk0LDM2LjQsMTMuMTYsMzYuMTcsMTQuMzksMzUuNjJ6IE0xOS43NCwyOS4xOCAgICAgIGMtMC4yMiwwLTAuNDQsMC4xMS0wLjU1LDAuMTFjLTAuNTYtMC4yMi0wLjIyLTIuNDQtMS4wMS0yLjMzYy0wLjMzLDAuMTEsMC4yMywxLjc4LDEuMDEsMi42N2MwLjExLDAuMTEsMC4yMiwwLDAuNDQsMCAgICAgIEMxOS42MywyOS41MiwxOS43NCwyOS4yOSwxOS43NCwyOS4xOHogTTE5LjE5LDMwLjc0Yy0wLjktMC4yMy0xLjU3LDEuNzctMS43OSwyLjY2QzE4LjE4LDMyLjYyLDE4Ljc0LDMxLjczLDE5LjE5LDMwLjc0eiAgICAgICBNNS44LDM1LjE4YzAuMTItMC44OSwwLjIzLTEuODksMC0yYy0wLjc4LTAuNjctMS4zNC0xLjY3LTAuNTYtMi42N2MwLjEyLTAuMTEsMC4yMy0wLjIyLDAuMjMtMC40NCAgICAgIGMwLjExLTAuMzMtMC4yMy0wLjExLTAuNzgtMC4xMWMtMC41NiwwLTAuMTItMC44OS0xLjIzLTFjLTEuMTItMC4xMS0xLjEyLTAuMzMtMS4yMy0xYzAtMC42Ny0wLjY2LTEuMzMtMS4yMi0xLjQ0ICAgICAgYzAsMC4xMSwwLDAuMzMsMCwwLjQ0QzEuMDEsMzAuNTEsMy4wMSwzMy42Miw1LjgsMzUuMTh6IE0xMi4wNSwyMS4wOGMwLjQ1LDAuMjIsMC44OS0wLjExLDAuNzgtMC40NCAgICAgIEMxMi41LDIwLjA4LDExLjQ5LDIwLjQxLDEyLjA1LDIxLjA4eiBNMTMuOTQsMjEuOTdjMC4zNCwwLDAuNTYsMC42NiwwLjQ1LDAuOTljLTAuMjIsMC42Ny0wLjc4LDAuMjMtMC44OS0wLjIyICAgICAgQzEzLjUsMjIuMywxMy42MSwyMS45NywxMy45NCwyMS45N3ogTTE3LjYyLDI1LjA4Yy0wLjMzLTAuMzQtMC4yMi0wLjc4LDAuMjMtMC44OWMwLjc4LTAuMTEsMS43OCwwLjY2LDEuMTIsMC44OSAgICAgIEMxOC42MywyNS4xOSwxOC4wNywyNS4xOSwxNy42MiwyNS4wOHogTTUuMTMsMjcuODVjMC4zNCwwLDEuMjMsMC4yMiwxLjQ1LDAuNDVjMC4yMiwwLjMzLTAuNjYsMC4yMi0xLjIyLDAgICAgICBDNS4wMiwyOC4xOCw0LjgsMjcuOTYsNS4xMywyNy44NXoiLz4mI3hhOwkJCTwvZz4mI3hhOwkJPC9nPiYjeGE7CTwvZz4mI3hhOzwvZz4mI3hhOzwvc3ZnPg==;" vertex="1" parent="a1hQxXgVuY8dCBBikamt-16">
          <mxGeometry x="0.45000000000000284" width="67.11" height="50" as="geometry" />
        </mxCell>
        <mxCell id="a1hQxXgVuY8dCBBikamt-14" value="Website" style="text;html=1;resizable=0;points=[];autosize=1;align=center;verticalAlign=top;spacingTop=-4;labelBackgroundColor=none;" vertex="1" parent="a1hQxXgVuY8dCBBikamt-16">
          <mxGeometry y="60" width="70" height="20" as="geometry" />
        </mxCell>
        <mxCell id="a1hQxXgVuY8dCBBikamt-21" value="" style="group" vertex="1" connectable="0" parent="a1hQxXgVuY8dCBBikamt-27">
          <mxGeometry x="5" y="311" width="70" height="91" as="geometry" />
        </mxCell>
        <mxCell id="a1hQxXgVuY8dCBBikamt-18" value="Zalo API" style="text;html=1;resizable=0;points=[];autosize=1;align=center;verticalAlign=top;spacingTop=-4;labelBackgroundColor=none;" vertex="1" parent="a1hQxXgVuY8dCBBikamt-21">
          <mxGeometry y="71" width="70" height="20" as="geometry" />
        </mxCell>
        <mxCell id="a1hQxXgVuY8dCBBikamt-20" value="" style="sketch=0;pointerEvents=1;shadow=0;dashed=0;html=1;strokeColor=none;fillColor=#505050;labelPosition=center;verticalLabelPosition=bottom;verticalAlign=top;outlineConnect=0;align=center;shape=mxgraph.office.communications.chat_room;" vertex="1" parent="a1hQxXgVuY8dCBBikamt-21">
          <mxGeometry x="4.5" width="63" height="69" as="geometry" />
        </mxCell>
        <mxCell id="a1hQxXgVuY8dCBBikamt-22" value="" style="group" vertex="1" connectable="0" parent="a1hQxXgVuY8dCBBikamt-27">
          <mxGeometry width="83.5" height="90" as="geometry" />
        </mxCell>
        <mxCell id="a1hQxXgVuY8dCBBikamt-23" value="App Mobile" style="text;html=1;resizable=0;points=[];autosize=1;align=center;verticalAlign=top;spacingTop=-4;labelBackgroundColor=none;" vertex="1" parent="a1hQxXgVuY8dCBBikamt-22">
          <mxGeometry y="70" width="80" height="20" as="geometry" />
        </mxCell>
        <mxCell id="a1hQxXgVuY8dCBBikamt-24" value="" style="group" vertex="1" connectable="0" parent="a1hQxXgVuY8dCBBikamt-22">
          <mxGeometry x="4.5" width="79" height="59" as="geometry" />
        </mxCell>
        <mxCell id="a1hQxXgVuY8dCBBikamt-25" value="" style="shape=image;verticalLabelPosition=bottom;labelBackgroundColor=none;verticalAlign=top;aspect=fixed;imageAspect=0;image=data:image/svg+xml,PHN2ZyB4bWxuczpjYz0iaHR0cDovL2NyZWF0aXZlY29tbW9ucy5vcmcvbnMjIiB4bWxuczpkYz0iaHR0cDovL3B1cmwub3JnL2RjL2VsZW1lbnRzLzEuMS8iIHhtbG5zOmlua3NjYXBlPSJodHRwOi8vd3d3Lmlua3NjYXBlLm9yZy9uYW1lc3BhY2VzL2lua3NjYXBlIiB4bWxuczpyZGY9Imh0dHA6Ly93d3cudzMub3JnLzE5OTkvMDIvMjItcmRmLXN5bnRheC1ucyMiIHhtbG5zOnNvZGlwb2RpPSJodHRwOi8vc29kaXBvZGkuc291cmNlZm9yZ2UubmV0L0RURC9zb2RpcG9kaS0wLmR0ZCIgeG1sbnM6c3ZnPSJodHRwOi8vd3d3LnczLm9yZy8yMDAwL3N2ZyIgeG1sbnM9Imh0dHA6Ly93d3cudzMub3JnLzIwMDAvc3ZnIiB4bWxuczp4bGluaz0iaHR0cDovL3d3dy53My5vcmcvMTk5OS94bGluayIgdmVyc2lvbj0iMS4xIiBpZD0ic3ZnMjQzMyIgaW5rc2NhcGU6dmVyc2lvbj0iMC45Mi4zICgyNDA1NTQ2LCAyMDE4LTAzLTExKSIgc29kaXBvZGk6ZG9jbmFtZT0iZGV2aWNlX2FuZHJvaWQuc3ZnIiB4PSIwcHgiIHk9IjBweCIgdmlld0JveD0iMCAwIDI4LjY5IDU5LjIiIHN0eWxlPSJlbmFibGUtYmFja2dyb3VuZDpuZXcgMCAwIDI4LjY5IDU5LjI7IiB4bWw6c3BhY2U9InByZXNlcnZlIj4mI3hhOzxzb2RpcG9kaTpuYW1lZHZpZXcgYm9yZGVyY29sb3I9IiM2NjY2NjYiIGJvcmRlcm9wYWNpdHk9IjEiIGZpdC1tYXJnaW4tYm90dG9tPSIwIiBmaXQtbWFyZ2luLWxlZnQ9IjAiIGZpdC1tYXJnaW4tcmlnaHQ9IjAiIGZpdC1tYXJnaW4tdG9wPSIwIiBncmlkdG9sZXJhbmNlPSIxMCIgZ3VpZGV0b2xlcmFuY2U9IjEwIiBpZD0ibmFtZWR2aWV3MjQzNSIgaW5rc2NhcGU6Y3VycmVudC1sYXllcj0ic3ZnMjQzMyIgaW5rc2NhcGU6Y3g9IjE5LjEyODg2NCIgaW5rc2NhcGU6Y3k9IjM5LjQ2OTkyOCIgaW5rc2NhcGU6cGFnZW9wYWNpdHk9IjAiIGlua3NjYXBlOnBhZ2VzaGFkb3c9IjIiIGlua3NjYXBlOndpbmRvdy1oZWlnaHQ9IjEwMTciIGlua3NjYXBlOndpbmRvdy1tYXhpbWl6ZWQ9IjEiIGlua3NjYXBlOndpbmRvdy13aWR0aD0iMTkyMCIgaW5rc2NhcGU6d2luZG93LXg9Ii04IiBpbmtzY2FwZTp3aW5kb3cteT0iLTgiIGlua3NjYXBlOnpvb209IjEwLjk4NDg1MSIgb2JqZWN0dG9sZXJhbmNlPSIxMCIgcGFnZWNvbG9yPSIjZmZmZmZmIiBzaG93Z3JpZD0iZmFsc2UiPiYjeGE7CTwvc29kaXBvZGk6bmFtZWR2aWV3PiYjeGE7PGcgaWQ9ImcyNDMxIiB0cmFuc2Zvcm09InRyYW5zbGF0ZSgwLC0zLjM2MzU5OTFlLTUpIj4mI3hhOwk8dGl0bGUgaWQ9InRpdGxlMjM3NyI+UGFnZS0xPC90aXRsZT4mI3hhOwk8ZyBpZD0iZ3JvdXAzNDgxLTEiPiYjeGE7CQk8dGl0bGUgaWQ9InRpdGxlMjM3OSI+RGV2aWNlOiBBbmRyb2lkPC90aXRsZT4mI3hhOwkJPGcgaWQ9InNoYXBlMzQ4Mi0yIj4mI3hhOwkJCTx0aXRsZSBpZD0idGl0bGUyMzgxIj5TaGVldC4zNDgyPC90aXRsZT4mI3hhOwkJCTxwYXRoIGlkPSJwYXRoMjM4MyIgaW5rc2NhcGU6Y29ubmVjdG9yLWN1cnZhdHVyZT0iMCIgc3R5bGU9ImZpbGw6IzNGNTc2NTsiIGQ9Ik0yOC42OSw1NS4wNGMwLDIuMjctMS44OSw0LjE2LTQuMjIsNC4xNiAgICAgYy0yMC4yOCwwLTIwLjI4LDAtMjAuMjgsMEMxLjg1LDU5LjIsMCw1Ny4zMSwwLDU1LjA0QzAsNC4yMiwwLDQuMjIsMCw0LjIyQzAsMS44OSwxLjg1LDAsNC4xOSwwYzIwLjI4LDAsMjAuMjgsMCwyMC4yOCwwICAgICBjMi4zMywwLDQuMjIsMS44OSw0LjIyLDQuMjJWNTUuMDR6Ii8+JiN4YTsJCTwvZz4mI3hhOwkJPGcgaWQ9InNoYXBlMzQ4My00IiB0cmFuc2Zvcm09InRyYW5zbGF0ZSg3LjI3NDYzLC0zMS44MTgyKSI+JiN4YTsJCQk8dGl0bGUgaWQ9InRpdGxlMjM4NiI+U2hlZXQuMzQ4MzwvdGl0bGU+JiN4YTsJCQk8ZGVzYyBpZD0iZGVzYzIzODgiPlY8L2Rlc2M+JiN4YTsJCQk8cGF0aCBpZD0icGF0aDIzOTAiIGlua3NjYXBlOmNvbm5lY3Rvci1jdXJ2YXR1cmU9IjAiIHN0eWxlPSJmaWxsOm5vbmU7IiBkPSJNMTYuNDEsMzcuNjJIMFY1OS4yaDE2LjQxVjM3LjYyIi8+JiN4YTsJCQk8dGV4dCBpZD0idGV4dDIzOTIiIHRyYW5zZm9ybT0ibWF0cml4KDEgMCAwIDEgMy4xIDUzLjgpIiBzdHlsZT0iZmlsbDojNTA1MDUwOyBmb250LWZhbWlseTonQ2FsaWJyaSc7IGZvbnQtc2l6ZToxNy45NzQycHg7Ij5WPC90ZXh0PiYjeGE7CQk8L2c+JiN4YTsJCTxnIGlkPSJzaGFwZTM0ODQtOCIgdHJhbnNmb3JtPSJ0cmFuc2xhdGUoMS41NjA3MiwtOC4xNDgzMikiPiYjeGE7CQkJPHRpdGxlIGlkPSJ0aXRsZTIzOTUiPlNoZWV0LjM0ODQ8L3RpdGxlPiYjeGE7CQkJPHBhdGggaWQ9InBhdGgyMzk3IiBpbmtzY2FwZTpjb25uZWN0b3ItY3VydmF0dXJlPSIwIiBzdHlsZT0iZmlsbDojOEQ5RkIwOyIgZD0iTTAsMTQuNjJWNTkuMmgyNS41N1YxNC42MkgweiIvPiYjeGE7CQk8L2c+JiN4YTsJCTxnIGlkPSJzaGFwZTM0ODUtMTAiIHRyYW5zZm9ybT0idHJhbnNsYXRlKDYuMjQyODksLTU1LjQ4MDUpIj4mI3hhOwkJCTx0aXRsZSBpZD0idGl0bGUyNDAwIj5TaGVldC4zNDg1PC90aXRsZT4mI3hhOwkJCTxwYXRoIGlkPSJwYXRoMjQwMiIgaW5rc2NhcGU6Y29ubmVjdG9yLWN1cnZhdHVyZT0iMCIgc3R5bGU9ImZpbGw6IzhFOUZCMDsiIGQ9Ik0xMi45Nyw1OC42YzAsMC4zMy0wLjMsMC42LTAuNjMsMC42ICAgICBjLTExLjcsMC0xMS43LDAtMTEuNywwQzAuMyw1OS4yLDAsNTguOTMsMCw1OC42bDAsMEMwLDU4LjI3LDAuMyw1OCwwLjY0LDU4YzExLjcsMCwxMS43LDAsMTEuNywwICAgICBDMTIuNjcsNTgsMTIuOTcsNTguMjcsMTIuOTcsNTguNnoiLz4mI3hhOwkJPC9nPiYjeGE7CQk8ZyBpZD0ic2hhcGUzNDg2LTEyIiB0cmFuc2Zvcm09InRyYW5zbGF0ZSgyMS4wMDk3LC01NS4zNjA2KSI+JiN4YTsJCQk8dGl0bGUgaWQ9InRpdGxlMjQwNSI+U2hlZXQuMzQ4NjwvdGl0bGU+JiN4YTsJCQk8cGF0aCBpZD0icGF0aDI0MDciIGlua3NjYXBlOmNvbm5lY3Rvci1jdXJ2YXR1cmU9IjAiIHN0eWxlPSJmaWxsOiM4RTlGQjA7IiBkPSJNMCw1OC40OGMwLTAuNCwwLjMyLTAuNzIsMC43Mi0wLjcyICAgICBzMC43MiwwLjMyLDAuNzIsMC43MmMwLDAuMzktMC4zMiwwLjcyLTAuNzIsMC43MlMwLDU4Ljg3LDAsNTguNDh6Ii8+JiN4YTsJCTwvZz4mI3hhOwkJPGcgaWQ9InNoYXBlMzQ4Ny0xNCIgdHJhbnNmb3JtPSJ0cmFuc2xhdGUoNi4yNDI4OSwtMi4wMzcwOCkiPiYjeGE7CQkJPHRpdGxlIGlkPSJ0aXRsZTI0MTAiPlNoZWV0LjM0ODc8L3RpdGxlPiYjeGE7CQkJPHBhdGggaWQ9InBhdGgyNDEyIiBpbmtzY2FwZTpjb25uZWN0b3ItY3VydmF0dXJlPSIwIiBzdHlsZT0iZmlsbDojOEU5RkIwOyIgZD0iTTE2LjIxLDU4LjY5YzAsMC4zLTAuMiwwLjUxLTAuNDksMC41MSAgICAgYy0xNS4xOCwwLTE1LjE4LDAtMTUuMTgsMEMwLjI1LDU5LjIsMCw1OC45OSwwLDU4LjY5bDAsMGMwLTAuMzEsMC4yNS0wLjU3LDAuNTQtMC41N2MxNS4xOCwwLDE1LjE4LDAsMTUuMTgsMCAgICAgQzE2LjAxLDU4LjEyLDE2LjIxLDU4LjM4LDE2LjIxLDU4LjY5eiIvPiYjeGE7CQk8L2c+JiN4YTsJCTxnIGlkPSJzaGFwZTM0ODgtMTYiIHRyYW5zZm9ybT0idHJhbnNsYXRlKDcuOTIzNjcsLTI2Ljg0MTUpIj4mI3hhOwkJCTx0aXRsZSBpZD0idGl0bGUyNDE1Ij5TaGVldC4zNDg4PC90aXRsZT4mI3hhOwkJCTxwYXRoIGlkPSJwYXRoMjQxNyIgaW5rc2NhcGU6Y29ubmVjdG9yLWN1cnZhdHVyZT0iMCIgc3R5bGU9ImZpbGw6I0ZGRkZGRjsiIGQ9Ik0xMS45NCw1My42OGMtMC41LDAtMC45MiwwLjQyLTAuOTIsMC45NSAgICAgYzAsMy42MywwLDMuNjMsMCwzLjYzYzAsMC41MiwwLjQyLDAuOTQsMC45MiwwLjk0YzAuNDksMCwwLjkxLTAuNDIsMC45MS0wLjk0YzAtMy42MywwLTMuNjMsMC0zLjYzICAgICBDMTIuODUsNTQuMSwxMi40Myw1My42OCwxMS45NCw1My42OHogTTAuOTIsNTMuNjhDMC40Miw1My42OCwwLDU0LjEsMCw1NC42M2MwLDMuNjMsMCwzLjYzLDAsMy42M2MwLDAuNTIsMC40MiwwLjk0LDAuOTIsMC45NCAgICAgczAuOTEtMC40MiwwLjkxLTAuOTRjMC0zLjYzLDAtMy42MywwLTMuNjNDMS44Myw1NC4xLDEuNDIsNTMuNjgsMC45Miw1My42OHoiLz4mI3hhOwkJPC9nPiYjeGE7CQk8ZyBpZD0ic2hhcGUzNDg5LTE4IiB0cmFuc2Zvcm09InRyYW5zbGF0ZSgxMC4zMjQ4LC0yMi4wNDg0KSI+JiN4YTsJCQk8dGl0bGUgaWQ9InRpdGxlMjQyMCI+U2hlZXQuMzQ4OTwvdGl0bGU+JiN4YTsJCQk8cGF0aCBpZD0icGF0aDI0MjIiIGlua3NjYXBlOmNvbm5lY3Rvci1jdXJ2YXR1cmU9IjAiIHN0eWxlPSJmaWxsOiNGRkZGRkY7IiBkPSJNMCw0OC44OWMwLDYuNjQsMCw2LjY0LDAsNi42NCAgICAgYzAsMC40LDAuMzIsMC43MSwwLjcxLDAuNzFjMC44MiwwLDAuODIsMCwwLjgyLDBjMCwyLjAyLDAsMi4wMiwwLDIuMDJjMCwwLjUyLDAuNDIsMC45NCwwLjkyLDAuOTRjMC41MSwwLDAuOTMtMC40MiwwLjkzLTAuOTQgICAgIGMwLTIuMDIsMC0yLjAyLDAtMi4wMmMxLjQxLDAsMS40MSwwLDEuNDEsMGMwLDIuMDIsMCwyLjAyLDAsMi4wMmMwLDAuNTIsMC40MiwwLjk0LDAuOTMsMC45NGMwLjUsMCwwLjkyLTAuNDIsMC45Mi0wLjk0ICAgICBjMC0yLjAyLDAtMi4wMiwwLTIuMDJjMC44MiwwLDAuODIsMCwwLjgyLDBjMC40LDAsMC43LTAuMzEsMC43LTAuNzFjMC02LjY0LDAtNi42NCwwLTYuNjRIMHoiLz4mI3hhOwkJPC9nPiYjeGE7CQk8ZyBpZD0ic2hhcGUzNDkwLTIwIiB0cmFuc2Zvcm09InRyYW5zbGF0ZSgxMC4zMjQ4LC0zMi45NTI4KSI+JiN4YTsJCQk8dGl0bGUgaWQ9InRpdGxlMjQyNSI+U2hlZXQuMzQ5MDwvdGl0bGU+JiN4YTsJCQk8cGF0aCBpZD0icGF0aDI0MjciIGlua3NjYXBlOmNvbm5lY3Rvci1jdXJ2YXR1cmU9IjAiIHN0eWxlPSJmaWxsOiNGRkZGRkY7IiBkPSJNNS45NCw1Ni40MWMwLjc1LTEuMDYsMC43NS0xLjA2LDAuNzUtMS4wNiAgICAgYzAuMDQtMC4wNiwwLjAyLTAuMTUtMC4wMy0wLjE4Yy0wLjA2LTAuMDUtMC4xNC0wLjAzLTAuMTgsMC4wM0M1LjcsNTYuMzMsNS43LDU2LjMzLDUuNyw1Ni4zM0M1LjE4LDU2LjEyLDQuNjIsNTYsNC4wMiw1NiAgICAgYy0wLjU5LDAtMS4xNSwwLjEyLTEuNjYsMC4zM0MxLjU3LDU1LjIsMS41Nyw1NS4yLDEuNTcsNTUuMmMtMC4wNC0wLjA2LTAuMTItMC4wOC0wLjE4LTAuMDNjLTAuMDUsMC4wMy0wLjA3LDAuMTItMC4wMiwwLjE4ICAgICBjMC43NCwxLjA2LDAuNzQsMS4wNiwwLjc0LDEuMDZDMC45Myw1Ni45NiwwLjExLDU4LDAsNTkuMmM4LjA0LDAsOC4wNCwwLDguMDQsMEM3Ljk1LDU4LDcuMTIsNTYuOTYsNS45NCw1Ni40MXogTTIuMzMsNTguMSAgICAgYy0wLjI0LDAtMC40NS0wLjIxLTAuNDUtMC40NWMwLTAuMjIsMC4yMS0wLjQyLDAuNDUtMC40MmMwLjI1LDAsMC40NCwwLjIsMC40NCwwLjQyQzIuNzcsNTcuODksMi41OCw1OC4xLDIuMzMsNTguMXogTTUuNzgsNTguMSAgICAgYy0wLjI1LDAtMC40NC0wLjIxLTAuNDQtMC40NWMwLTAuMjIsMC4xOS0wLjQyLDAuNDQtMC40MnMwLjQ2LDAuMiwwLjQ2LDAuNDJDNi4yNCw1Ny44OSw2LjAzLDU4LjEsNS43OCw1OC4xeiIvPiYjeGE7CQk8L2c+JiN4YTsJPC9nPiYjeGE7PC9nPiYjeGE7PC9zdmc+;" vertex="1" parent="a1hQxXgVuY8dCBBikamt-24">
          <mxGeometry width="29" height="59" as="geometry" />
        </mxCell>
        <mxCell id="a1hQxXgVuY8dCBBikamt-26" value="" style="shape=image;verticalLabelPosition=bottom;labelBackgroundColor=none;verticalAlign=top;aspect=fixed;imageAspect=0;image=data:image/svg+xml,PHN2ZyB4bWxuczpjYz0iaHR0cDovL2NyZWF0aXZlY29tbW9ucy5vcmcvbnMjIiB4bWxuczpkYz0iaHR0cDovL3B1cmwub3JnL2RjL2VsZW1lbnRzLzEuMS8iIHhtbG5zOmlua3NjYXBlPSJodHRwOi8vd3d3Lmlua3NjYXBlLm9yZy9uYW1lc3BhY2VzL2lua3NjYXBlIiB4bWxuczpyZGY9Imh0dHA6Ly93d3cudzMub3JnLzE5OTkvMDIvMjItcmRmLXN5bnRheC1ucyMiIHhtbG5zOnNvZGlwb2RpPSJodHRwOi8vc29kaXBvZGkuc291cmNlZm9yZ2UubmV0L0RURC9zb2RpcG9kaS0wLmR0ZCIgeG1sbnM6c3ZnPSJodHRwOi8vd3d3LnczLm9yZy8yMDAwL3N2ZyIgeG1sbnM9Imh0dHA6Ly93d3cudzMub3JnLzIwMDAvc3ZnIiB4bWxuczp4bGluaz0iaHR0cDovL3d3dy53My5vcmcvMTk5OS94bGluayIgdmVyc2lvbj0iMS4xIiBpZD0ic3ZnNDE2OSIgaW5rc2NhcGU6dmVyc2lvbj0iMC45Mi4zICgyNDA1NTQ2LCAyMDE4LTAzLTExKSIgc29kaXBvZGk6ZG9jbmFtZT0iZGV2aWNlX2lwaG9uZS5zdmciIHg9IjBweCIgeT0iMHB4IiB2aWV3Qm94PSIwIDAgMjguODEgNTguMTIiIHN0eWxlPSJlbmFibGUtYmFja2dyb3VuZDpuZXcgMCAwIDI4LjgxIDU4LjEyOyIgeG1sOnNwYWNlPSJwcmVzZXJ2ZSI+JiN4YTs8c29kaXBvZGk6bmFtZWR2aWV3IGJvcmRlcmNvbG9yPSIjNjY2NjY2IiBib3JkZXJvcGFjaXR5PSIxIiBmaXQtbWFyZ2luLWJvdHRvbT0iMCIgZml0LW1hcmdpbi1sZWZ0PSIwIiBmaXQtbWFyZ2luLXJpZ2h0PSIwIiBmaXQtbWFyZ2luLXRvcD0iMCIgZ3JpZHRvbGVyYW5jZT0iMTAiIGd1aWRldG9sZXJhbmNlPSIxMCIgaWQ9Im5hbWVkdmlldzQxNzEiIGlua3NjYXBlOmN1cnJlbnQtbGF5ZXI9InN2ZzQxNjkiIGlua3NjYXBlOmN4PSIxOS4yMDg4NTYiIGlua3NjYXBlOmN5PSIzOC43NDg4NDQiIGlua3NjYXBlOnBhZ2VvcGFjaXR5PSIwIiBpbmtzY2FwZTpwYWdlc2hhZG93PSIyIiBpbmtzY2FwZTp3aW5kb3ctaGVpZ2h0PSIxMDE3IiBpbmtzY2FwZTp3aW5kb3ctbWF4aW1pemVkPSIxIiBpbmtzY2FwZTp3aW5kb3ctd2lkdGg9IjE5MjAiIGlua3NjYXBlOndpbmRvdy14PSItOCIgaW5rc2NhcGU6d2luZG93LXk9Ii04IiBpbmtzY2FwZTp6b29tPSIxMS4xODg3IiBvYmplY3R0b2xlcmFuY2U9IjEwIiBwYWdlY29sb3I9IiNmZmZmZmYiIHNob3dncmlkPSJmYWxzZSI+JiN4YTsJPC9zb2RpcG9kaTpuYW1lZHZpZXc+JiN4YTs8ZyBpZD0iZzQxNjciIHRyYW5zZm9ybT0idHJhbnNsYXRlKC0xLjczNjE4NDllLTUpIj4mI3hhOwk8dGl0bGUgaWQ9InRpdGxlNDEyMiI+UGFnZS0xPC90aXRsZT4mI3hhOwk8ZyBpZD0iZ3JvdXAzNDU4LTEiPiYjeGE7CQk8dGl0bGUgaWQ9InRpdGxlNDEyNCI+RGV2aWNlOiBpUGhvbmU8L3RpdGxlPiYjeGE7CQk8ZyBpZD0ic2hhcGUzNDU5LTIiPiYjeGE7CQkJPHRpdGxlIGlkPSJ0aXRsZTQxMjYiPlNoZWV0LjM0NTk8L3RpdGxlPiYjeGE7CQkJPHBhdGggaWQ9InBhdGg0MTI4IiBpbmtzY2FwZTpjb25uZWN0b3ItY3VydmF0dXJlPSIwIiBzdHlsZT0iZmlsbDojM0Y1NzY1OyIgZD0iTTI4LjgxLDUzLjhjMCwyLjQyLTEuOSw0LjMyLTQuMzQsNC4zMiAgICAgYy0yMC4wNywwLTIwLjA3LDAtMjAuMDcsMGMtMi40MywwLTQuNC0xLjktNC40LTQuMzJDMCw0LjM3LDAsNC4zNywwLDQuMzdDMCwxLjk1LDEuOTcsMCw0LjQsMGMyMC4wNywwLDIwLjA3LDAsMjAuMDcsMCAgICAgYzIuNDQsMCw0LjM0LDEuOTUsNC4zNCw0LjM3VjUzLjh6Ii8+JiN4YTsJCTwvZz4mI3hhOwkJPGcgaWQ9InNoYXBlMzQ2MC00IiB0cmFuc2Zvcm09InRyYW5zbGF0ZSgxMi42MDU4LC01NC40MDIpIj4mI3hhOwkJCTx0aXRsZSBpZD0idGl0bGU0MTMxIj5TaGVldC4zNDYwPC90aXRsZT4mI3hhOwkJCTxwYXRoIGlkPSJwYXRoNDEzMyIgaW5rc2NhcGU6Y29ubmVjdG9yLWN1cnZhdHVyZT0iMCIgc3R5bGU9ImZpbGw6IzhFOUZCMDsiIGQ9Ik0zLjg0LDU3Ljg2YzAsMC4xNy0wLjA5LDAuMjYtMC4yNCwwLjI2ICAgICBjLTMuMzEsMC0zLjMxLDAtMy4zMSwwQzAuMTUsNTguMTIsMCw1OC4wMywwLDU3Ljg2bDAsMGMwLTAuMTMsMC4xNS0wLjIyLDAuMjktMC4yMmMzLjMxLDAsMy4zMSwwLDMuMzEsMCAgICAgQzMuNzUsNTcuNjQsMy44NCw1Ny43MywzLjg0LDU3Ljg2eiIvPiYjeGE7CQk8L2c+JiN4YTsJCTxnIGlkPSJzaGFwZTM0NjEtNiIgdHJhbnNmb3JtPSJ0cmFuc2xhdGUoMTIuNjA1OCwtMS43OTc0MikiPiYjeGE7CQkJPHRpdGxlIGlkPSJ0aXRsZTQxMzYiPlNoZWV0LjM0NjE8L3RpdGxlPiYjeGE7CQkJPHBhdGggaWQ9InBhdGg0MTM4IiBpbmtzY2FwZTpjb25uZWN0b3ItY3VydmF0dXJlPSIwIiBzdHlsZT0iZmlsbDojOEU5RkIwOyIgZD0iTTAsNTYuMjZjMC0xLjAyLDAuODYtMS44NiwxLjkyLTEuODYgICAgIGMxLjA3LDAsMS45MiwwLjg0LDEuOTIsMS44NmMwLDEuMDMtMC44NSwxLjg2LTEuOTIsMS44NkMwLjg2LDU4LjEyLDAsNTcuMjksMCw1Ni4yNnoiLz4mI3hhOwkJPC9nPiYjeGE7CQk8ZyBpZD0ic2hhcGUzNDYyLTgiIHRyYW5zZm9ybT0idHJhbnNsYXRlKDEwLjA4NDcsLTU0LjE2MjMpIj4mI3hhOwkJCTx0aXRsZSBpZD0idGl0bGU0MTQxIj5TaGVldC4zNDYyPC90aXRsZT4mI3hhOwkJCTxwYXRoIGlkPSJwYXRoNDE0MyIgaW5rc2NhcGU6Y29ubmVjdG9yLWN1cnZhdHVyZT0iMCIgc3R5bGU9ImZpbGw6IzhFOUZCMDsiIGQ9Ik0wLDU3LjY0YzAtMC4yNiwwLjIyLTAuNDgsMC40OC0wLjQ4ICAgICBjMC4yNywwLDAuNDgsMC4yMiwwLjQ4LDAuNDhjMCwwLjI3LTAuMjEsMC40OC0wLjQ4LDAuNDhDMC4yMiw1OC4xMiwwLDU3LjkxLDAsNTcuNjR6Ii8+JiN4YTsJCTwvZz4mI3hhOwkJPGcgaWQ9InNoYXBlMzQ2My0xMCIgdHJhbnNmb3JtPSJ0cmFuc2xhdGUoMTQuMjg2NiwtNTYuMzE5MykiPiYjeGE7CQkJPHRpdGxlIGlkPSJ0aXRsZTQxNDYiPlNoZWV0LjM0NjM8L3RpdGxlPiYjeGE7CQkJPHBhdGggaWQ9InBhdGg0MTQ4IiBpbmtzY2FwZTpjb25uZWN0b3ItY3VydmF0dXJlPSIwIiBzdHlsZT0iZmlsbDojOEU5RkIwOyIgZD0iTTAsNTcuODhjMC0wLjEzLDAuMTQtMC4yNCwwLjMtMC4yNCAgICAgYzAuMTcsMCwwLjMsMC4xMSwwLjMsMC4yNHMtMC4xMywwLjI0LTAuMywwLjI0QzAuMTQsNTguMTIsMCw1OC4wMSwwLDU3Ljg4eiIvPiYjeGE7CQk8L2c+JiN4YTsJCTxnIGlkPSJzaGFwZTM0NjQtMTIiIHRyYW5zZm9ybT0idHJhbnNsYXRlKDEuNjgwNzgsLTYuMzUwODkpIj4mI3hhOwkJCTx0aXRsZSBpZD0idGl0bGU0MTUxIj5TaGVldC4zNDY0PC90aXRsZT4mI3hhOwkJCTxwYXRoIGlkPSJwYXRoNDE1MyIgaW5rc2NhcGU6Y29ubmVjdG9yLWN1cnZhdHVyZT0iMCIgc3R5bGU9ImZpbGw6IzhEOUZCMDsiIGQ9Ik0wLDEyLjd2NDUuNDJoMjUuNjlWMTIuN0gweiIvPiYjeGE7CQk8L2c+JiN4YTsJCTxnIGlkPSJzaGFwZTM0NjUtMTQiIHRyYW5zZm9ybT0idHJhbnNsYXRlKDguNDM4NDgsLTIzLjYwNjIpIj4mI3hhOwkJCTx0aXRsZSBpZD0idGl0bGU0MTU2Ij5TaGVldC4zNDY1PC90aXRsZT4mI3hhOwkJCTxwYXRoIGlkPSJwYXRoNDE1OCIgaW5rc2NhcGU6Y29ubmVjdG9yLWN1cnZhdHVyZT0iMCIgc3R5bGU9ImZpbGw6I0ZGRkZGRjsiIGQ9Ik0xMi4zMyw1NC4yOWMtMC4zNCwwLjczLTAuNTEsMS4wNy0wLjk0LDEuNzIgICAgIGMtMC42LDAuOTUtMS40NiwyLjA3LTIuNSwyLjExYy0wLjk0LDAtMS4yLTAuNjUtMi40NS0wLjZjLTEuMjgsMC0xLjU0LDAuNi0yLjQ5LDAuNmMtMS4wNy0wLjA0LTEuODUtMS4wNy0yLjQ1LTEuOTggICAgIGMtMS43Mi0yLjU4LTEuODktNS42LTAuODYtNy4yNGMwLjc3LTEuMTIsMS45NC0xLjgxLDMuMDEtMS44MWMxLjEyLDAsMS44NSwwLjY1LDIuNzUsMC42NXMxLjQ3LTAuNjUsMi43NS0wLjY1ICAgICBjMC45OSwwLDIuMDMsMC41NiwyLjc1LDEuNDdDOS40OSw0OS44OSw5Ljg5LDUzLjM0LDEyLjMzLDU0LjI5eiIvPiYjeGE7CQk8L2c+JiN4YTsJCTxnIGlkPSJzaGFwZTM0NjYtMTYiIHRyYW5zZm9ybT0idHJhbnNsYXRlKDEzLjU3NjYsLTM0LjUxMDUpIj4mI3hhOwkJCTx0aXRsZSBpZD0idGl0bGU0MTYxIj5TaGVldC4zNDY2PC90aXRsZT4mI3hhOwkJCTxwYXRoIGlkPSJwYXRoNDE2MyIgaW5rc2NhcGU6Y29ubmVjdG9yLWN1cnZhdHVyZT0iMCIgc3R5bGU9ImZpbGw6I0ZGRkZGRjsiIGQ9Ik0yLjIsNTYuOTZjMC40NS0wLjYsMC43OS0xLjQxLDAuNjctMi4zMiAgICAgYy0wLjcyLDAuMDktMS42LDAuNTYtMi4xNSwxLjIxYy0wLjQ3LDAuNTUtMC44NSwxLjQxLTAuNjgsMi4yN0MwLjg1LDU4LjEyLDEuNzMsNTcuNjQsMi4yLDU2Ljk2eiIvPiYjeGE7CQk8L2c+JiN4YTsJPC9nPiYjeGE7PC9nPiYjeGE7PC9zdmc+;" vertex="1" parent="a1hQxXgVuY8dCBBikamt-24">
          <mxGeometry x="43" y="0.5" width="29" height="58" as="geometry" />
        </mxCell>
        <mxCell id="a1hQxXgVuY8dCBBikamt-39" value="" style="group" vertex="1" connectable="0" parent="1">
          <mxGeometry x="320" y="-10" width="150" height="480" as="geometry" />
        </mxCell>
        <mxCell id="28heIlWIprtDJxRmpmQK-6" value="" style="rounded=0;whiteSpace=wrap;html=1;fillColor=#f5f5f5;strokeColor=none;fontColor=#333333;labelBackgroundColor=none;" parent="a1hQxXgVuY8dCBBikamt-39" vertex="1">
          <mxGeometry width="150" height="480" as="geometry" />
        </mxCell>
        <mxCell id="eWjkR0wsdmifyLcniZH0-5" value="DeepSeek" style="aspect=fixed;html=1;perimeter=none;align=center;shadow=0;dashed=0;image;fontSize=12;image=img/lib/mscae/Active_Directory.svg;labelBackgroundColor=none;" parent="a1hQxXgVuY8dCBBikamt-39" vertex="1">
          <mxGeometry x="52.5" y="270" width="50" height="50" as="geometry" />
        </mxCell>
        <mxCell id="eWjkR0wsdmifyLcniZH0-6" value="ChatGPT" style="aspect=fixed;html=1;perimeter=none;align=center;shadow=0;dashed=0;image;fontSize=12;image=img/lib/mscae/Application_Insights.svg;labelBackgroundColor=none;" parent="a1hQxXgVuY8dCBBikamt-39" vertex="1">
          <mxGeometry x="55" y="50" width="39" height="60" as="geometry" />
        </mxCell>
        <mxCell id="eWjkR0wsdmifyLcniZH0-8" value="Claude" style="pointerEvents=1;shadow=0;dashed=0;html=1;strokeColor=none;labelPosition=center;verticalLabelPosition=bottom;verticalAlign=top;align=center;shape=mxgraph.mscae.deprecated.bot;fillColor=#00188D;aspect=fixed;labelBackgroundColor=none;" parent="a1hQxXgVuY8dCBBikamt-39" vertex="1">
          <mxGeometry x="47" y="158" width="55" height="55" as="geometry" />
        </mxCell>
        <mxCell id="a1hQxXgVuY8dCBBikamt-38" value="" style="group" vertex="1" connectable="0" parent="a1hQxXgVuY8dCBBikamt-39">
          <mxGeometry x="45" y="370" width="60" height="67" as="geometry" />
        </mxCell>
        <mxCell id="a1hQxXgVuY8dCBBikamt-31" value="" style="html=1;strokeWidth=1;shadow=0;dashed=0;shape=mxgraph.ios7.misc.link;fillColor=#4CDA64;strokeColor=none;buttonText=;strokeColor2=#222222;fontColor=#222222;fontSize=8;verticalLabelPosition=bottom;verticalAlign=top;align=center;sketch=0;" vertex="1" parent="a1hQxXgVuY8dCBBikamt-38">
          <mxGeometry x="7.5" width="47.5" height="42" as="geometry" />
        </mxCell>
        <mxCell id="a1hQxXgVuY8dCBBikamt-37" value="LLMs" style="text;html=1;align=center;verticalAlign=middle;whiteSpace=wrap;rounded=0;" vertex="1" parent="a1hQxXgVuY8dCBBikamt-38">
          <mxGeometry y="50" width="60" height="17" as="geometry" />
        </mxCell>
        <mxCell id="a1hQxXgVuY8dCBBikamt-40" style="edgeStyle=orthogonalEdgeStyle;rounded=0;orthogonalLoop=1;jettySize=auto;html=1;exitX=1;exitY=0.25;exitDx=0;exitDy=0;entryX=0;entryY=0.25;entryDx=0;entryDy=0;" edge="1" parent="1" source="28heIlWIprtDJxRmpmQK-2" target="28heIlWIprtDJxRmpmQK-6">
          <mxGeometry relative="1" as="geometry" />
        </mxCell>
        <mxCell id="a1hQxXgVuY8dCBBikamt-51" value="" style="group" vertex="1" connectable="0" parent="1">
          <mxGeometry x="697" y="150" width="60" height="84" as="geometry" />
        </mxCell>
        <mxCell id="a1hQxXgVuY8dCBBikamt-48" value="" style="verticalLabelPosition=bottom;aspect=fixed;html=1;shape=mxgraph.salesforce.workflow2;" vertex="1" parent="a1hQxXgVuY8dCBBikamt-51">
          <mxGeometry width="60" height="60" as="geometry" />
        </mxCell>
        <mxCell id="a1hQxXgVuY8dCBBikamt-50" value="Pincore" style="text;html=1;align=center;verticalAlign=middle;whiteSpace=wrap;rounded=0;" vertex="1" parent="a1hQxXgVuY8dCBBikamt-51">
          <mxGeometry y="60" width="60" height="24" as="geometry" />
        </mxCell>
        <mxCell id="a1hQxXgVuY8dCBBikamt-53" value="" style="group" vertex="1" connectable="0" parent="1">
          <mxGeometry x="850" y="-40" width="165" height="200" as="geometry" />
        </mxCell>
        <mxCell id="a1hQxXgVuY8dCBBikamt-49" value="" style="rounded=0;whiteSpace=wrap;html=1;fillColor=#f5f5f5;strokeColor=none;fontColor=#333333;labelBackgroundColor=none;" vertex="1" parent="a1hQxXgVuY8dCBBikamt-53">
          <mxGeometry width="165" height="200" as="geometry" />
        </mxCell>
        <mxCell id="eWjkR0wsdmifyLcniZH0-12" value="Structured" style="aspect=fixed;html=1;perimeter=none;align=center;shadow=0;dashed=0;image;fontSize=12;image=img/lib/mscae/SQL_Database_generic.svg;labelBackgroundColor=none;" parent="a1hQxXgVuY8dCBBikamt-53" vertex="1">
          <mxGeometry x="62.5" y="20" width="45" height="60" as="geometry" />
        </mxCell>
        <mxCell id="a1hQxXgVuY8dCBBikamt-47" value="" style="group" vertex="1" connectable="0" parent="a1hQxXgVuY8dCBBikamt-53">
          <mxGeometry x="38.75" y="110" width="107.5" height="78" as="geometry" />
        </mxCell>
        <mxCell id="a1hQxXgVuY8dCBBikamt-45" value="" style="image;sketch=0;aspect=fixed;html=1;points=[];align=center;fontSize=12;image=img/lib/mscae/SAP_HANA_on_Azure.svg;" vertex="1" parent="a1hQxXgVuY8dCBBikamt-47">
          <mxGeometry width="104" height="52" as="geometry" />
        </mxCell>
        <mxCell id="a1hQxXgVuY8dCBBikamt-46" value="SAP Service Layer" style="text;html=1;align=center;verticalAlign=middle;whiteSpace=wrap;rounded=0;" vertex="1" parent="a1hQxXgVuY8dCBBikamt-47">
          <mxGeometry y="58" width="107.5" height="20" as="geometry" />
        </mxCell>
        <mxCell id="a1hQxXgVuY8dCBBikamt-57" value="" style="group" vertex="1" connectable="0" parent="1">
          <mxGeometry x="850" y="170" width="165" height="320" as="geometry" />
        </mxCell>
        <mxCell id="a1hQxXgVuY8dCBBikamt-52" value="" style="rounded=0;whiteSpace=wrap;html=1;fillColor=#f5f5f5;strokeColor=none;fontColor=#333333;labelBackgroundColor=none;" vertex="1" parent="a1hQxXgVuY8dCBBikamt-57">
          <mxGeometry width="165" height="320" as="geometry" />
        </mxCell>
        <mxCell id="eWjkR0wsdmifyLcniZH0-7" value="Non-Structured" style="shape=image;verticalLabelPosition=bottom;labelBackgroundColor=none;verticalAlign=top;aspect=fixed;imageAspect=0;image=data:image/svg+xml,PHN2ZyB4bWxuczpjYz0iaHR0cDovL2NyZWF0aXZlY29tbW9ucy5vcmcvbnMjIiB4bWxuczpkYz0iaHR0cDovL3B1cmwub3JnL2RjL2VsZW1lbnRzLzEuMS8iIHhtbG5zOmlua3NjYXBlPSJodHRwOi8vd3d3Lmlua3NjYXBlLm9yZy9uYW1lc3BhY2VzL2lua3NjYXBlIiB4bWxuczpyZGY9Imh0dHA6Ly93d3cudzMub3JnLzE5OTkvMDIvMjItcmRmLXN5bnRheC1ucyMiIHhtbG5zOnNvZGlwb2RpPSJodHRwOi8vc29kaXBvZGkuc291cmNlZm9yZ2UubmV0L0RURC9zb2RpcG9kaS0wLmR0ZCIgeG1sbnM6c3ZnPSJodHRwOi8vd3d3LnczLm9yZy8yMDAwL3N2ZyIgeG1sbnM9Imh0dHA6Ly93d3cudzMub3JnLzIwMDAvc3ZnIiB4bWxuczp4bGluaz0iaHR0cDovL3d3dy53My5vcmcvMTk5OS94bGluayIgdmVyc2lvbj0iMS4xIiBpZD0ic3ZnNjAyNDAiIGlua3NjYXBlOnZlcnNpb249IjAuOTIuMyAoMjQwNTU0NiwgMjAxOC0wMy0xMSkiIHNvZGlwb2RpOmRvY25hbWU9ImF6dXJlX3BvcnRhbF9hcHBfc2VydmljZXNfZW52aXJvbm1lbnRzLnN2ZyIgeD0iMHB4IiB5PSIwcHgiIHZpZXdCb3g9IjAgMCAyNy4yMSAyNy4xNCIgc3R5bGU9ImVuYWJsZS1iYWNrZ3JvdW5kOm5ldyAwIDAgMjcuMjEgMjcuMTQ7IiB4bWw6c3BhY2U9InByZXNlcnZlIj4mI3hhOzxzb2RpcG9kaTpuYW1lZHZpZXcgYm9yZGVyY29sb3I9IiM2NjY2NjYiIGJvcmRlcm9wYWNpdHk9IjEiIGZpdC1tYXJnaW4tYm90dG9tPSIwIiBmaXQtbWFyZ2luLWxlZnQ9IjAiIGZpdC1tYXJnaW4tcmlnaHQ9IjAiIGZpdC1tYXJnaW4tdG9wPSIwIiBncmlkdG9sZXJhbmNlPSIxMCIgZ3VpZGV0b2xlcmFuY2U9IjEwIiBpZD0ibmFtZWR2aWV3NjAyNDIiIGlua3NjYXBlOmN1cnJlbnQtbGF5ZXI9InN2ZzYwMjQwIiBpbmtzY2FwZTpjeD0iMTkuMzcxMzk1IiBpbmtzY2FwZTpjeT0iMTMuMzQ4NDkxIiBpbmtzY2FwZTpwYWdlb3BhY2l0eT0iMCIgaW5rc2NhcGU6cGFnZXNoYWRvdz0iMiIgaW5rc2NhcGU6d2luZG93LWhlaWdodD0iMTAxNyIgaW5rc2NhcGU6d2luZG93LW1heGltaXplZD0iMSIgaW5rc2NhcGU6d2luZG93LXdpZHRoPSIxOTIwIiBpbmtzY2FwZTp3aW5kb3cteD0iLTgiIGlua3NjYXBlOndpbmRvdy15PSItOCIgaW5rc2NhcGU6em9vbT0iMTUuOTQxNjkxIiBvYmplY3R0b2xlcmFuY2U9IjEwIiBwYWdlY29sb3I9IiNmZmZmZmYiIHNob3dncmlkPSJmYWxzZSI+JiN4YTsJPC9zb2RpcG9kaTpuYW1lZHZpZXc+JiN4YTs8ZyBpZD0iZzYwMjM4IiB0cmFuc2Zvcm09InRyYW5zbGF0ZSgtMjAuMDM4MiwtMy42MjcpIj4mI3hhOwk8dGl0bGUgaWQ9InRpdGxlNjAyMDUiPlBhZ2UtMTwvdGl0bGU+JiN4YTsJPGcgaWQ9Imdyb3VwNDM3Mi0xIiB0cmFuc2Zvcm09InRyYW5zbGF0ZSgyMC4wMzgyLC0yNi45MTU3KSI+JiN4YTsJCTx0aXRsZSBpZD0idGl0bGU2MDIwNyI+QXp1cmUgUG9ydGFsIC0gQXBwIFNlcnZpY2VzIEVudmlyb25tZW50czwvdGl0bGU+JiN4YTsJCTxnIGlkPSJncm91cDQzNzMtMiI+JiN4YTsJCQk8dGl0bGUgaWQ9InRpdGxlNjAyMDkiPlNoZWV0LjQzNzM8L3RpdGxlPiYjeGE7CQkJPGcgaWQ9InNoYXBlNDM3NC0zIj4mI3hhOwkJCQk8dGl0bGUgaWQ9InRpdGxlNjAyMTEiPlNoZWV0LjQzNzQ8L3RpdGxlPiYjeGE7CQkJCTxwYXRoIGlkPSJwYXRoNjAyMTMiIGlua3NjYXBlOmNvbm5lY3Rvci1jdXJ2YXR1cmU9IjAiIHN0eWxlPSJmaWxsOiNBMEExQTI7IiBkPSJNMTAuOTksNTUuODNIMS45MnYtOWgxLjc5ICAgICAgYy0wLjItMC41My0wLjMzLTEuMTMtMC4zMy0xLjc5YzAsMCwwLTAuMDcsMC0wLjEzSDB2MTIuNzdoMTIuODR2LTcuNTRoLTEuODVWNTUuODN6Ii8+JiN4YTsJCQk8L2c+JiN4YTsJCQk8ZyBpZD0ic2hhcGU0Mzc1LTUiIHRyYW5zZm9ybT0idHJhbnNsYXRlKDE0LjM2NzMpIj4mI3hhOwkJCQk8dGl0bGUgaWQ9InRpdGxlNjAyMTYiPlNoZWV0LjQzNzU8L3RpdGxlPiYjeGE7CQkJCTxwYXRoIGlkPSJwYXRoNjAyMTgiIGlua3NjYXBlOmNvbm5lY3Rvci1jdXJ2YXR1cmU9IjAiIHN0eWxlPSJmaWxsOiNBMEExQTI7IiBkPSJNOS4yNyw0Ni44M2gxLjY1djlIMS44NXYtNS42OUgwdjcuNTRoMTIuODQgICAgICBWNDQuOTFIOC44MWMwLjMzLDAuNTMsMC40NiwxLjEyLDAuNDYsMS43OEM5LjI3LDQ2Ljc2LDkuMjcsNDYuNzYsOS4yNyw0Ni44M3oiLz4mI3hhOwkJCTwvZz4mI3hhOwkJCTxnIGlkPSJzaGFwZTQzNzYtNyIgdHJhbnNmb3JtPSJ0cmFuc2xhdGUoMC4wNjYyMDg4LC0xNC4zMDExKSI+JiN4YTsJCQkJPHRpdGxlIGlkPSJ0aXRsZTYwMjIxIj5TaGVldC40Mzc2PC90aXRsZT4mI3hhOwkJCQk8cGF0aCBpZD0icGF0aDYwMjIzIiBpbmtzY2FwZTpjb25uZWN0b3ItY3VydmF0dXJlPSIwIiBzdHlsZT0iZmlsbDojQTBBMUEyOyIgZD0iTTEuODUsNTUuNzZ2LTloOS4wN3Y1LjIzICAgICAgYzAuNi0wLjQsMS4yLTAuNzMsMS44Ni0wLjkzdi02LjE1SDB2MTIuNzdoMy43MWMwLjI2LTAuNzIsMC42Ni0xLjMyLDEuMTktMS44NUwxLjg1LDU1Ljc2eiIvPiYjeGE7CQkJPC9nPiYjeGE7CQkJPGcgaWQ9InNoYXBlNDM3Ny05IiB0cmFuc2Zvcm09InRyYW5zbGF0ZSgxNC4zNjczLC0xNC4zNjczKSI+JiN4YTsJCQkJPHRpdGxlIGlkPSJ0aXRsZTYwMjI2Ij5TaGVldC40Mzc3PC90aXRsZT4mI3hhOwkJCQk8cGF0aCBpZD0icGF0aDYwMjI4IiBpbmtzY2FwZTpjb25uZWN0b3ItY3VydmF0dXJlPSIwIiBzdHlsZT0iZmlsbDojQTBBMUEyOyIgZD0iTTEuODUsNTF2LTQuMTdoOS4wN3Y5aC0zLjkgICAgICBjMC4xMywwLjYsMC4yNiwxLjE5LDAuMjYsMS43OXYwLjA2aDUuNTZWNDQuOTFIMHY1Ljg5YzAuMTMsMCwwLjMzLDAsMC40NiwwQzAuOTMsNTAuOCwxLjM5LDUwLjg3LDEuODUsNTF6Ii8+JiN4YTsJCQk8L2c+JiN4YTsJCTwvZz4mI3hhOwkJPGcgaWQ9InNoYXBlNDM3OC0xMSIgdHJhbnNmb3JtPSJ0cmFuc2xhdGUoNC44OTk0NSwtOS4wMDQ0KSI+JiN4YTsJCQk8dGl0bGUgaWQ9InRpdGxlNjAyMzIiPlNoZWV0LjQzNzg8L3RpdGxlPiYjeGE7CQkJPHBhdGggaWQ9InBhdGg2MDIzNCIgaW5rc2NhcGU6Y29ubmVjdG9yLWN1cnZhdHVyZT0iMCIgc3R5bGU9ImZpbGw6IzdBQzNFMDsiIGQ9Ik0xNy4zNSw1NS43YzAtMS4xMy0wLjkzLTIuMDUtMS45OS0yLjA1ICAgICBjLTAuMDcsMC0wLjEzLDAtMC4yNiwwYzAuMTMtMC40NywwLjE5LTAuOTMsMC4xOS0xLjQ2YzAtMi45OC0yLjM4LTUuNDMtNS4zNi01LjQzYy0yLjM4LDAtNC4zNywxLjUyLTUuMSwzLjcxICAgICBjLTAuMzktMC4xMy0wLjc5LTAuMi0xLjE5LTAuMkMxLjU5LDUwLjI3LDAsNTEuOTIsMCw1My45OGMwLDIuMDUsMS42NiwzLjcsMy42NCwzLjdoMTEuOTJDMTYuNTUsNTcuNjIsMTcuMzUsNTYuNzYsMTcuMzUsNTUuN3oiLz4mI3hhOwkJPC9nPiYjeGE7CTwvZz4mI3hhOzwvZz4mI3hhOzwvc3ZnPg==;" parent="a1hQxXgVuY8dCBBikamt-57" vertex="1">
          <mxGeometry x="52.5" y="20" width="60" height="60" as="geometry" />
        </mxCell>
        <mxCell id="eWjkR0wsdmifyLcniZH0-11" value="PDF, Doc, Txt" style="aspect=fixed;html=1;perimeter=none;align=center;shadow=0;dashed=0;image;fontSize=12;image=img/lib/mscae/Search.svg;labelBackgroundColor=none;" parent="a1hQxXgVuY8dCBBikamt-57" vertex="1">
          <mxGeometry x="52.5" y="117" width="60" height="60" as="geometry" />
        </mxCell>
        <mxCell id="a1hQxXgVuY8dCBBikamt-56" value="" style="group" vertex="1" connectable="0" parent="a1hQxXgVuY8dCBBikamt-57">
          <mxGeometry x="38.5" y="217" width="88" height="98" as="geometry" />
        </mxCell>
        <mxCell id="a1hQxXgVuY8dCBBikamt-54" value="" style="verticalLabelPosition=bottom;html=1;verticalAlign=top;strokeWidth=1;align=center;outlineConnect=0;dashed=0;outlineConnect=0;shape=mxgraph.aws3d.image;strokeColor=none;fillColor=#777777;aspect=fixed;" vertex="1" parent="a1hQxXgVuY8dCBBikamt-56">
          <mxGeometry x="24.24000000000001" width="39.53" height="68" as="geometry" />
        </mxCell>
        <mxCell id="a1hQxXgVuY8dCBBikamt-55" value="Image, Sound" style="text;html=1;align=center;verticalAlign=middle;whiteSpace=wrap;rounded=0;" vertex="1" parent="a1hQxXgVuY8dCBBikamt-56">
          <mxGeometry y="68" width="88" height="30" as="geometry" />
        </mxCell>
        <mxCell id="a1hQxXgVuY8dCBBikamt-59" style="edgeStyle=orthogonalEdgeStyle;rounded=0;orthogonalLoop=1;jettySize=auto;html=1;exitX=1;exitY=0.25;exitDx=0;exitDy=0;" edge="1" parent="1" source="28heIlWIprtDJxRmpmQK-6" target="a1hQxXgVuY8dCBBikamt-48">
          <mxGeometry relative="1" as="geometry">
            <Array as="points">
              <mxPoint x="640" y="110" />
              <mxPoint x="640" y="180" />
            </Array>
          </mxGeometry>
        </mxCell>
        <mxCell id="eWjkR0wsdmifyLcniZH0-9" value="NLP" style="shape=image;verticalLabelPosition=bottom;labelBackgroundColor=none;verticalAlign=top;aspect=fixed;imageAspect=0;image=data:image/svg+xml,PHN2ZyB4bWxuczpjYz0iaHR0cDovL2NyZWF0aXZlY29tbW9ucy5vcmcvbnMjIiB4bWxuczpkYz0iaHR0cDovL3B1cmwub3JnL2RjL2VsZW1lbnRzLzEuMS8iIHhtbG5zOmlua3NjYXBlPSJodHRwOi8vd3d3Lmlua3NjYXBlLm9yZy9uYW1lc3BhY2VzL2lua3NjYXBlIiB4bWxuczpyZGY9Imh0dHA6Ly93d3cudzMub3JnLzE5OTkvMDIvMjItcmRmLXN5bnRheC1ucyMiIHhtbG5zOnNvZGlwb2RpPSJodHRwOi8vc29kaXBvZGkuc291cmNlZm9yZ2UubmV0L0RURC9zb2RpcG9kaS0wLmR0ZCIgeG1sbnM6c3ZnPSJodHRwOi8vd3d3LnczLm9yZy8yMDAwL3N2ZyIgeG1sbnM9Imh0dHA6Ly93d3cudzMub3JnLzIwMDAvc3ZnIiB4bWxuczp4bGluaz0iaHR0cDovL3d3dy53My5vcmcvMTk5OS94bGluayIgdmVyc2lvbj0iMS4xIiBpZD0ic3ZnMjQ3OTciIGlua3NjYXBlOnZlcnNpb249IjAuOTIuMyAoMjQwNTU0NiwgMjAxOC0wMy0xMSkiIHNvZGlwb2RpOmRvY25hbWU9Imxhbmd1YWdlX3VuZGVyc3RhbmRpbmdfbHVpcy5zdmciIHg9IjBweCIgeT0iMHB4IiB2aWV3Qm94PSIwIDAgNzEuMDEgNzEuMDEiIHN0eWxlPSJlbmFibGUtYmFja2dyb3VuZDpuZXcgMCAwIDcxLjAxIDcxLjAxOyIgeG1sOnNwYWNlPSJwcmVzZXJ2ZSI+JiN4YTs8c29kaXBvZGk6bmFtZWR2aWV3IGJvcmRlcmNvbG9yPSIjNjY2NjY2IiBib3JkZXJvcGFjaXR5PSIxIiBmaXQtbWFyZ2luLWJvdHRvbT0iMCIgZml0LW1hcmdpbi1sZWZ0PSIwIiBmaXQtbWFyZ2luLXJpZ2h0PSIwIiBmaXQtbWFyZ2luLXRvcD0iMCIgZ3JpZHRvbGVyYW5jZT0iMTAiIGd1aWRldG9sZXJhbmNlPSIxMCIgaWQ9Im5hbWVkdmlldzI0Nzk5IiBpbmtzY2FwZTpjdXJyZW50LWxheWVyPSJzdmcyNDc5NyIgaW5rc2NhcGU6Y3g9IjQ3LjM0MzIwNSIgaW5rc2NhcGU6Y3k9IjQ3LjM0MzIwMSIgaW5rc2NhcGU6cGFnZW9wYWNpdHk9IjAiIGlua3NjYXBlOnBhZ2VzaGFkb3c9IjIiIGlua3NjYXBlOndpbmRvdy1oZWlnaHQ9IjEwMTciIGlua3NjYXBlOndpbmRvdy1tYXhpbWl6ZWQ9IjEiIGlua3NjYXBlOndpbmRvdy13aWR0aD0iMTkyMCIgaW5rc2NhcGU6d2luZG93LXg9Ii04IiBpbmtzY2FwZTp3aW5kb3cteT0iLTgiIGlua3NjYXBlOnpvb209IjguOTY3MTM0NSIgb2JqZWN0dG9sZXJhbmNlPSIxMCIgcGFnZWNvbG9yPSIjZmZmZmZmIiBzaG93Z3JpZD0iZmFsc2UiPiYjeGE7CTwvc29kaXBvZGk6bmFtZWR2aWV3PiYjeGE7PGcgaWQ9ImcyNDc5NSIgdHJhbnNmb3JtPSJ0cmFuc2xhdGUoLTAuNzUsLTAuNzUpIj4mI3hhOwk8dGl0bGUgaWQ9InRpdGxlMjQ3NzUiPlBhZ2UtMTwvdGl0bGU+JiN4YTsJPGcgaWQ9Imdyb3VwMTI0LTEiIHRyYW5zZm9ybT0idHJhbnNsYXRlKDAuNzUsLTAuNzUpIj4mI3hhOwkJPHRpdGxlIGlkPSJ0aXRsZTI0Nzc3Ij5MYW5ndWFnZSBVbmRlcnN0YW5kaW5nIChMVUlTKTwvdGl0bGU+JiN4YTsJCTxkZXNjIGlkPSJkZXNjMjQ3NzkiPkNyZWF0ZWQgd2l0aCBTa2V0Y2guPC9kZXNjPiYjeGE7CQk8ZyBpZD0iZ3JvdXAxMjUtMiI+JiN4YTsJCQk8dGl0bGUgaWQ9InRpdGxlMjQ3ODEiPkxVSVM8L3RpdGxlPiYjeGE7CQkJPGcgaWQ9InNoYXBlMTI2LTMiPiYjeGE7CQkJCTx0aXRsZSBpZD0idGl0bGUyNDc4MyI+UmVjdGFuZ2xlLTMtQ29weS0xMzwvdGl0bGU+JiN4YTsJCQkJPHJlY3QgaWQ9InJlY3QyNDc4NSIgeT0iMS41IiBzdHlsZT0iZmlsbDojMDA2M0IxOyIgd2lkdGg9IjcxLjAxIiBoZWlnaHQ9IjcxLjAxIi8+JiN4YTsJCQk8L2c+JiN4YTsJCQk8ZyBpZD0ic2hhcGUxMjctNSIgdHJhbnNmb3JtPSJ0cmFuc2xhdGUoMTQuOTkxNywtMTcuNDk5OCkiPiYjeGE7CQkJCTx0aXRsZSBpZD0idGl0bGUyNDc4OCI+Q29tYmluZWQtU2hhcGU8L3RpdGxlPiYjeGE7CQkJCTxwYXRoIGlkPSJwYXRoMjQ3OTAiIGlua3NjYXBlOmNvbm5lY3Rvci1jdXJ2YXR1cmU9IjAiIHN0eWxlPSJmaWxsOiNGRkZGRkY7IiBkPSJNMzkuODYsNTMuNTNsMC42LDAuMDh2Mi40NGwtMC41OSwwLjA4ICAgICAgYy0xLjcsMC4yNC0yLjU1LDEuNTktMi41NSw0LjMzdjUuNzNjMCwyLjEyLTAuNDksMy43LTEuNTEsNC43MWMtMSwxLTIuNDUsMS41Mi00LjMyLDEuNTlsLTAuNzIsMC4wM3YtM2wwLjY2LTAuMDMgICAgICBjMC45OS0wLjA2LDEuNjMtMC4zNCwxLjk3LTAuODJjMC4zOC0wLjUyLDAuNi0xLjU0LDAuNi0zLjA0di01LjMyYzAtMi41NywwLjY5LTQuNDEsMi4wOC01LjQ2QzM0LjY5LDUzLjg4LDM0LDUyLjEzLDM0LDQ5LjY4ICAgICAgdi01LjY0YzAtMS41LTAuMjItMi41My0wLjYtMy4wNWMtMC4zNC0wLjQ4LTAuOTgtMC43Ni0xLjk3LTAuODFsLTAuNjYtMC4wNHYtMi45OWwwLjcyLDAuMDJjMS44NywwLjA4LDMuMzIsMC42LDQuMzIsMS41OSAgICAgIGMxLjAyLDEuMDEsMS41MSwyLjYsMS41MSw0LjcydjYuMDVDMzcuMzIsNTIuMDUsMzguMTUsNTMuMywzOS44Niw1My41M3ogTTQuNjUsMzguNzZjMS0wLjk5LDIuNDUtMS41MSw0LjMyLTEuNTlsMC43Mi0wLjAyICAgICAgdjIuOTlsLTAuNjUsMC4wNGMtMSwwLjA1LTEuNjMsMC4zMy0xLjk4LDAuODFjLTAuMzgsMC41Mi0wLjYsMS41NS0wLjYsMy4wNXY1LjY0YzAsMi40Ni0wLjcsNC4yMi0yLjEsNS4xOCAgICAgIGMxLjQxLDEuMDEsMi4xLDIuODYsMi4xLDUuNDV2NS4zMmMwLDEuNSwwLjIyLDIuNTIsMC42LDMuMDRjMC4zNSwwLjQ4LDAuOTgsMC43NiwxLjk4LDAuODJsMC42NSwwLjAzdjIuOTlsLTAuNzItMC4wMiAgICAgIEM3LjEsNzIuNDIsNS42NSw3MS45LDQuNjUsNzAuOWMtMS4wMi0xLjAxLTEuNS0yLjU5LTEuNS00Ljcxdi01LjczYzAtMi43NC0wLjg1LTQuMDktMi41NS00LjMzTDAsNTYuMDV2LTIuNDRsMC42LTAuMDggICAgICBjMS43MS0wLjIzLDIuNTUtMS40OCwyLjU1LTR2LTYuMDVDMy4xNSw0MS4zNiwzLjYzLDM5Ljc3LDQuNjUsMzguNzZ6Ii8+JiN4YTsJCQk8L2c+JiN4YTsJCTwvZz4mI3hhOwk8L2c+JiN4YTs8L2c+JiN4YTs8L3N2Zz4=;" parent="1" vertex="1">
          <mxGeometry x="550" y="80" width="60" height="60" as="geometry" />
        </mxCell>
        <mxCell id="a1hQxXgVuY8dCBBikamt-60" value="" style="edgeStyle=orthogonalEdgeStyle;rounded=0;orthogonalLoop=1;jettySize=auto;html=1;" edge="1" parent="1" source="a1hQxXgVuY8dCBBikamt-48" target="a1hQxXgVuY8dCBBikamt-52">
          <mxGeometry relative="1" as="geometry" />
        </mxCell>
        <mxCell id="a1hQxXgVuY8dCBBikamt-61" style="edgeStyle=orthogonalEdgeStyle;rounded=0;orthogonalLoop=1;jettySize=auto;html=1;entryX=0;entryY=0.5;entryDx=0;entryDy=0;" edge="1" parent="1" source="a1hQxXgVuY8dCBBikamt-48" target="a1hQxXgVuY8dCBBikamt-49">
          <mxGeometry relative="1" as="geometry" />
        </mxCell>
        <mxCell id="a1hQxXgVuY8dCBBikamt-63" style="edgeStyle=orthogonalEdgeStyle;rounded=0;orthogonalLoop=1;jettySize=auto;html=1;" edge="1" parent="1">
          <mxGeometry relative="1" as="geometry">
            <mxPoint x="470" y="360" as="targetPoint" />
            <mxPoint x="700" y="180" as="sourcePoint" />
            <Array as="points">
              <mxPoint x="640" y="180" />
              <mxPoint x="640" y="360" />
            </Array>
          </mxGeometry>
        </mxCell>
        <mxCell id="a1hQxXgVuY8dCBBikamt-58" value="NLP" style="shape=image;verticalLabelPosition=bottom;labelBackgroundColor=none;verticalAlign=top;aspect=fixed;imageAspect=0;image=data:image/svg+xml,PHN2ZyB4bWxuczpjYz0iaHR0cDovL2NyZWF0aXZlY29tbW9ucy5vcmcvbnMjIiB4bWxuczpkYz0iaHR0cDovL3B1cmwub3JnL2RjL2VsZW1lbnRzLzEuMS8iIHhtbG5zOmlua3NjYXBlPSJodHRwOi8vd3d3Lmlua3NjYXBlLm9yZy9uYW1lc3BhY2VzL2lua3NjYXBlIiB4bWxuczpyZGY9Imh0dHA6Ly93d3cudzMub3JnLzE5OTkvMDIvMjItcmRmLXN5bnRheC1ucyMiIHhtbG5zOnNvZGlwb2RpPSJodHRwOi8vc29kaXBvZGkuc291cmNlZm9yZ2UubmV0L0RURC9zb2RpcG9kaS0wLmR0ZCIgeG1sbnM6c3ZnPSJodHRwOi8vd3d3LnczLm9yZy8yMDAwL3N2ZyIgeG1sbnM9Imh0dHA6Ly93d3cudzMub3JnLzIwMDAvc3ZnIiB4bWxuczp4bGluaz0iaHR0cDovL3d3dy53My5vcmcvMTk5OS94bGluayIgdmVyc2lvbj0iMS4xIiBpZD0ic3ZnMjQ3OTciIGlua3NjYXBlOnZlcnNpb249IjAuOTIuMyAoMjQwNTU0NiwgMjAxOC0wMy0xMSkiIHNvZGlwb2RpOmRvY25hbWU9Imxhbmd1YWdlX3VuZGVyc3RhbmRpbmdfbHVpcy5zdmciIHg9IjBweCIgeT0iMHB4IiB2aWV3Qm94PSIwIDAgNzEuMDEgNzEuMDEiIHN0eWxlPSJlbmFibGUtYmFja2dyb3VuZDpuZXcgMCAwIDcxLjAxIDcxLjAxOyIgeG1sOnNwYWNlPSJwcmVzZXJ2ZSI+JiN4YTs8c29kaXBvZGk6bmFtZWR2aWV3IGJvcmRlcmNvbG9yPSIjNjY2NjY2IiBib3JkZXJvcGFjaXR5PSIxIiBmaXQtbWFyZ2luLWJvdHRvbT0iMCIgZml0LW1hcmdpbi1sZWZ0PSIwIiBmaXQtbWFyZ2luLXJpZ2h0PSIwIiBmaXQtbWFyZ2luLXRvcD0iMCIgZ3JpZHRvbGVyYW5jZT0iMTAiIGd1aWRldG9sZXJhbmNlPSIxMCIgaWQ9Im5hbWVkdmlldzI0Nzk5IiBpbmtzY2FwZTpjdXJyZW50LWxheWVyPSJzdmcyNDc5NyIgaW5rc2NhcGU6Y3g9IjQ3LjM0MzIwNSIgaW5rc2NhcGU6Y3k9IjQ3LjM0MzIwMSIgaW5rc2NhcGU6cGFnZW9wYWNpdHk9IjAiIGlua3NjYXBlOnBhZ2VzaGFkb3c9IjIiIGlua3NjYXBlOndpbmRvdy1oZWlnaHQ9IjEwMTciIGlua3NjYXBlOndpbmRvdy1tYXhpbWl6ZWQ9IjEiIGlua3NjYXBlOndpbmRvdy13aWR0aD0iMTkyMCIgaW5rc2NhcGU6d2luZG93LXg9Ii04IiBpbmtzY2FwZTp3aW5kb3cteT0iLTgiIGlua3NjYXBlOnpvb209IjguOTY3MTM0NSIgb2JqZWN0dG9sZXJhbmNlPSIxMCIgcGFnZWNvbG9yPSIjZmZmZmZmIiBzaG93Z3JpZD0iZmFsc2UiPiYjeGE7CTwvc29kaXBvZGk6bmFtZWR2aWV3PiYjeGE7PGcgaWQ9ImcyNDc5NSIgdHJhbnNmb3JtPSJ0cmFuc2xhdGUoLTAuNzUsLTAuNzUpIj4mI3hhOwk8dGl0bGUgaWQ9InRpdGxlMjQ3NzUiPlBhZ2UtMTwvdGl0bGU+JiN4YTsJPGcgaWQ9Imdyb3VwMTI0LTEiIHRyYW5zZm9ybT0idHJhbnNsYXRlKDAuNzUsLTAuNzUpIj4mI3hhOwkJPHRpdGxlIGlkPSJ0aXRsZTI0Nzc3Ij5MYW5ndWFnZSBVbmRlcnN0YW5kaW5nIChMVUlTKTwvdGl0bGU+JiN4YTsJCTxkZXNjIGlkPSJkZXNjMjQ3NzkiPkNyZWF0ZWQgd2l0aCBTa2V0Y2guPC9kZXNjPiYjeGE7CQk8ZyBpZD0iZ3JvdXAxMjUtMiI+JiN4YTsJCQk8dGl0bGUgaWQ9InRpdGxlMjQ3ODEiPkxVSVM8L3RpdGxlPiYjeGE7CQkJPGcgaWQ9InNoYXBlMTI2LTMiPiYjeGE7CQkJCTx0aXRsZSBpZD0idGl0bGUyNDc4MyI+UmVjdGFuZ2xlLTMtQ29weS0xMzwvdGl0bGU+JiN4YTsJCQkJPHJlY3QgaWQ9InJlY3QyNDc4NSIgeT0iMS41IiBzdHlsZT0iZmlsbDojMDA2M0IxOyIgd2lkdGg9IjcxLjAxIiBoZWlnaHQ9IjcxLjAxIi8+JiN4YTsJCQk8L2c+JiN4YTsJCQk8ZyBpZD0ic2hhcGUxMjctNSIgdHJhbnNmb3JtPSJ0cmFuc2xhdGUoMTQuOTkxNywtMTcuNDk5OCkiPiYjeGE7CQkJCTx0aXRsZSBpZD0idGl0bGUyNDc4OCI+Q29tYmluZWQtU2hhcGU8L3RpdGxlPiYjeGE7CQkJCTxwYXRoIGlkPSJwYXRoMjQ3OTAiIGlua3NjYXBlOmNvbm5lY3Rvci1jdXJ2YXR1cmU9IjAiIHN0eWxlPSJmaWxsOiNGRkZGRkY7IiBkPSJNMzkuODYsNTMuNTNsMC42LDAuMDh2Mi40NGwtMC41OSwwLjA4ICAgICAgYy0xLjcsMC4yNC0yLjU1LDEuNTktMi41NSw0LjMzdjUuNzNjMCwyLjEyLTAuNDksMy43LTEuNTEsNC43MWMtMSwxLTIuNDUsMS41Mi00LjMyLDEuNTlsLTAuNzIsMC4wM3YtM2wwLjY2LTAuMDMgICAgICBjMC45OS0wLjA2LDEuNjMtMC4zNCwxLjk3LTAuODJjMC4zOC0wLjUyLDAuNi0xLjU0LDAuNi0zLjA0di01LjMyYzAtMi41NywwLjY5LTQuNDEsMi4wOC01LjQ2QzM0LjY5LDUzLjg4LDM0LDUyLjEzLDM0LDQ5LjY4ICAgICAgdi01LjY0YzAtMS41LTAuMjItMi41My0wLjYtMy4wNWMtMC4zNC0wLjQ4LTAuOTgtMC43Ni0xLjk3LTAuODFsLTAuNjYtMC4wNHYtMi45OWwwLjcyLDAuMDJjMS44NywwLjA4LDMuMzIsMC42LDQuMzIsMS41OSAgICAgIGMxLjAyLDEuMDEsMS41MSwyLjYsMS41MSw0LjcydjYuMDVDMzcuMzIsNTIuMDUsMzguMTUsNTMuMywzOS44Niw1My41M3ogTTQuNjUsMzguNzZjMS0wLjk5LDIuNDUtMS41MSw0LjMyLTEuNTlsMC43Mi0wLjAyICAgICAgdjIuOTlsLTAuNjUsMC4wNGMtMSwwLjA1LTEuNjMsMC4zMy0xLjk4LDAuODFjLTAuMzgsMC41Mi0wLjYsMS41NS0wLjYsMy4wNXY1LjY0YzAsMi40Ni0wLjcsNC4yMi0yLjEsNS4xOCAgICAgIGMxLjQxLDEuMDEsMi4xLDIuODYsMi4xLDUuNDV2NS4zMmMwLDEuNSwwLjIyLDIuNTIsMC42LDMuMDRjMC4zNSwwLjQ4LDAuOTgsMC43NiwxLjk4LDAuODJsMC42NSwwLjAzdjIuOTlsLTAuNzItMC4wMiAgICAgIEM3LjEsNzIuNDIsNS42NSw3MS45LDQuNjUsNzAuOWMtMS4wMi0xLjAxLTEuNS0yLjU5LTEuNS00Ljcxdi01LjczYzAtMi43NC0wLjg1LTQuMDktMi41NS00LjMzTDAsNTYuMDV2LTIuNDRsMC42LTAuMDggICAgICBjMS43MS0wLjIzLDIuNTUtMS40OCwyLjU1LTR2LTYuMDVDMy4xNSw0MS4zNiwzLjYzLDM5Ljc3LDQuNjUsMzguNzZ6Ii8+JiN4YTsJCQk8L2c+JiN4YTsJCTwvZz4mI3hhOwk8L2c+JiN4YTs8L2c+JiN4YTs8L3N2Zz4=;" vertex="1" parent="1">
          <mxGeometry x="550" y="330" width="60" height="60" as="geometry" />
        </mxCell>
        <mxCell id="a1hQxXgVuY8dCBBikamt-64" style="edgeStyle=orthogonalEdgeStyle;rounded=0;orthogonalLoop=1;jettySize=auto;html=1;exitX=0;exitY=0.75;exitDx=0;exitDy=0;entryX=1;entryY=0.75;entryDx=0;entryDy=0;" edge="1" parent="1" source="28heIlWIprtDJxRmpmQK-6" target="28heIlWIprtDJxRmpmQK-2">
          <mxGeometry relative="1" as="geometry" />
        </mxCell>
      </root>
    </mxGraphModel>
  </diagram>
</mxfile>
